<?xml version="1.0" encoding="UTF-8" standalone="no"?>
<!-- Created with Inkscape (http://www.inkscape.org/) -->

<svg
   xmlns:dc="http://purl.org/dc/elements/1.1/"
   xmlns:cc="http://creativecommons.org/ns#"
   xmlns:rdf="http://www.w3.org/1999/02/22-rdf-syntax-ns#"
   xmlns:svg="http://www.w3.org/2000/svg"
   xmlns="http://www.w3.org/2000/svg"
   xmlns:sodipodi="http://sodipodi.sourceforge.net/DTD/sodipodi-0.dtd"
   xmlns:inkscape="http://www.inkscape.org/namespaces/inkscape"
   width="990"
   height="765"
   id="svg2"
   version="1.1"
   inkscape:version="0.48.3.1 r9886"
   sodipodi:docname="ws_conditioning.svg">
  <sodipodi:namedview
     id="base"
     pagecolor="#ffffff"
     bordercolor="#666666"
     borderopacity="1.0"
     inkscape:pageopacity="0.0"
     inkscape:pageshadow="2"
     inkscape:zoom="0.97689919"
     inkscape:cx="384.23634"
     inkscape:cy="373.18772"
     inkscape:document-units="px"
     inkscape:current-layer="layer1"
     showgrid="false"
     inkscape:window-width="2560"
     inkscape:window-height="1392"
     inkscape:window-x="1280"
     inkscape:window-y="0"
     inkscape:window-maximized="1" />
  <defs
     id="defs4">
    <inkscape:perspective
       sodipodi:type="inkscape:persp3d"
       inkscape:vp_x="0 : 526.18109 : 1"
       inkscape:vp_y="0 : 1000 : 0"
       inkscape:vp_z="744.09448 : 526.18109 : 1"
       inkscape:persp3d-origin="372.04724 : 350.78739 : 1"
       id="perspective17142" />
    <marker
       style="overflow:visible"
       id="Arrow1Lend"
       refX="0"
       refY="0"
       orient="auto"
       inkscape:stockid="Arrow1Lend">
      <path
         inkscape:connector-curvature="0"
         transform="matrix(-0.8,0,0,-0.8,-10,0)"
         style="fill-rule:evenodd;stroke:#000000;stroke-width:1pt"
         d="M 0,0 5,-5 -12.5,0 5,5 0,0 z"
         id="path5381" />
    </marker>
    <marker
       style="overflow:visible"
       id="Arrow2Lend"
       refX="0"
       refY="0"
       orient="auto"
       inkscape:stockid="Arrow2Lend">
      <path
         inkscape:connector-curvature="0"
         transform="matrix(-1.1,0,0,-1.1,-1.1,0)"
         d="M 8.7185878,4.0337352 -2.2072895,0.01601326 8.7185884,-4.0017078 c -1.7454984,2.3720609 -1.7354408,5.6174519 -6e-7,8.035443 z"
         style="fill-rule:evenodd;stroke-width:0.625;stroke-linejoin:round"
         id="path5399" />
    </marker>
    <marker
       style="overflow:visible"
       id="StopL"
       refX="0"
       refY="0"
       orient="auto"
       inkscape:stockid="StopL">
      <path
         inkscape:connector-curvature="0"
         transform="scale(0.8,0.8)"
         style="fill:none;stroke:#000000;stroke-width:1pt"
         d="M 0,5.65 0,-5.65"
         id="path5547" />
    </marker>
    <marker
       inkscape:stockid="DistanceStart"
       orient="auto"
       refY="0"
       refX="0"
       id="DistanceStart"
       style="overflow:visible">
      <g
         id="g2300">
        <path
           inkscape:connector-curvature="0"
           id="path2306"
           d="M 0,0 2,0"
           style="fill:none;stroke:#ffffff;stroke-width:1.14999998;stroke-linecap:square" />
        <path
           inkscape:connector-curvature="0"
           id="path2302"
           d="M 0,0 13,4 9,0 13,-4 0,0 z"
           style="fill:#000000;fill-rule:evenodd;stroke:none" />
        <path
           inkscape:connector-curvature="0"
           id="path2304"
           d="M 0,-4 0,40"
           style="fill:none;stroke:#000000;stroke-width:1;stroke-linecap:square" />
      </g>
    </marker>
  </defs>
  <metadata
     id="metadata7">
    <rdf:RDF>
      <cc:Work
         rdf:about="">
        <dc:format>image/svg+xml</dc:format>
        <dc:type
           rdf:resource="http://purl.org/dc/dcmitype/StillImage" />
        <dc:title />
      </cc:Work>
    </rdf:RDF>
  </metadata>
  <g
     transform="translate(0,-287.36218)"
     id="layer1"
     inkscape:groupmode="layer"
     inkscape:label="Layer 1">
    <path
       sodipodi:open="true"
       sodipodi:end="4.9811697"
       sodipodi:start="1.4870205"
       transform="matrix(0,-2.9502054,-2.9502054,0,1466.6644,832.11466)"
       d="m 24.943184,370.16798 c -4.324161,0.67671 -8.123946,-5.30756 -8.487056,-13.36622 -0.36311,-8.05866 2.847957,-15.14008 7.172118,-15.81679 0.922514,-0.14436 1.85146,0.0162 2.743982,0.4744"
       sodipodi:ry="14.642858"
       sodipodi:rx="7.8571429"
       sodipodi:cy="355.57648"
       sodipodi:cx="24.285715"
       id="path2985"
       style="fill:#000000;fill-opacity:0;stroke:#000000;stroke-width:2;stroke-miterlimit:4.5;stroke-opacity:1;stroke-dasharray:none"
       sodipodi:type="arc" />
    <path
       sodipodi:type="arc"
       style="fill:#000000;fill-opacity:0;stroke:#000000;stroke-width:2;stroke-miterlimit:4.5;stroke-opacity:1;stroke-dasharray:none"
       id="path3777"
       sodipodi:cx="24.285715"
       sodipodi:cy="355.57648"
       sodipodi:rx="7.8571429"
       sodipodi:ry="14.642858"
       d="m 32.142858,355.57648 c 0,8.08702 -3.517763,14.64285 -7.857143,14.64285 -4.33938,0 -7.857143,-6.55583 -7.857143,-14.64285 0,-8.08703 3.517763,-14.64286 7.857143,-14.64286 4.33938,0 7.857143,6.55583 7.857143,14.64286 z"
       transform="matrix(0,-2.9502054,-2.9502054,0,1464.6644,690.50482)" />
    <path
       inkscape:connector-curvature="0"
       id="path3781"
       d="m 374.44115,762.57414 -2.10729,-144.4918"
       style="fill:#000000;fill-opacity:0;stroke:#000000;stroke-width:6.07420778;stroke-linecap:butt;stroke-linejoin:miter;stroke-miterlimit:4;stroke-opacity:1;stroke-dasharray:none" />
    <path
       style="fill:#000000;fill-opacity:0;stroke:#000000;stroke-width:5.90041065;stroke-linecap:butt;stroke-linejoin:miter;stroke-miterlimit:4;stroke-opacity:1;stroke-dasharray:none"
       d="M 460.84001,760.68142 458.73272,624.3398"
       id="path3794"
       inkscape:connector-curvature="0" />
    <path
       sodipodi:type="arc"
       style="fill:#000000;fill-opacity:0;stroke:#000000;stroke-width:3.78828406;stroke-miterlimit:4;stroke-opacity:1;stroke-dasharray:none"
       id="path3670"
       sodipodi:cx="61.42857"
       sodipodi:cy="385.21933"
       sodipodi:rx="2.1428571"
       sodipodi:ry="2.1428571"
       d="m 63.571427,385.21933 c 0,1.18347 -0.95939,2.14286 -2.142857,2.14286 -1.183467,0 -2.142857,-0.95939 -2.142857,-2.14286 0,-1.18347 0.95939,-2.14286 2.142857,-2.14286 1.183467,0 2.142857,0.95939 2.142857,2.14286 z"
       transform="matrix(1.1416105,0,0,2.1250124,558.44945,-199.04329)" />
    <path
       transform="matrix(1.1416105,0,0,2.1250124,620.04084,-199.04329)"
       d="m 63.571427,385.21933 c 0,1.18347 -0.95939,2.14286 -2.142857,2.14286 -1.183467,0 -2.142857,-0.95939 -2.142857,-2.14286 0,-1.18347 0.95939,-2.14286 2.142857,-2.14286 1.183467,0 2.142857,0.95939 2.142857,2.14286 z"
       sodipodi:ry="2.1428571"
       sodipodi:rx="2.1428571"
       sodipodi:cy="385.21933"
       sodipodi:cx="61.42857"
       id="path3672"
       style="fill:#000000;fill-opacity:0;stroke:#000000;stroke-width:3.78828406;stroke-miterlimit:4;stroke-opacity:1;stroke-dasharray:none"
       sodipodi:type="arc" />
    <path
       sodipodi:type="arc"
       style="fill:#000000;fill-opacity:0;stroke:#000000;stroke-width:3.78828406;stroke-miterlimit:4;stroke-opacity:1;stroke-dasharray:none"
       id="path3674"
       sodipodi:cx="61.42857"
       sodipodi:cy="385.21933"
       sodipodi:rx="2.1428571"
       sodipodi:ry="2.1428571"
       d="m 63.571427,385.21933 c 0,1.18347 -0.95939,2.14286 -2.142857,2.14286 -1.183467,0 -2.142857,-0.95939 -2.142857,-2.14286 0,-1.18347 0.95939,-2.14286 2.142857,-2.14286 1.183467,0 2.142857,0.95939 2.142857,2.14286 z"
       transform="matrix(1.1416105,0,0,2.1250124,589.24515,-149.77018)" />
    <path
       transform="matrix(1.1416105,0,0,2.1250124,576.92687,-100.49706)"
       d="m 63.571427,385.21933 c 0,1.18347 -0.95939,2.14286 -2.142857,2.14286 -1.183467,0 -2.142857,-0.95939 -2.142857,-2.14286 0,-1.18347 0.95939,-2.14286 2.142857,-2.14286 1.183467,0 2.142857,0.95939 2.142857,2.14286 z"
       sodipodi:ry="2.1428571"
       sodipodi:rx="2.1428571"
       sodipodi:cy="385.21933"
       sodipodi:cx="61.42857"
       id="path3676"
       style="fill:#000000;fill-opacity:0;stroke:#000000;stroke-width:3.78828406;stroke-miterlimit:4;stroke-opacity:1;stroke-dasharray:none"
       sodipodi:type="arc" />
    <path
       sodipodi:type="arc"
       style="fill:#000000;fill-opacity:0;stroke:#000000;stroke-width:3.78828406;stroke-miterlimit:4;stroke-opacity:1;stroke-dasharray:none"
       id="path3678"
       sodipodi:cx="61.42857"
       sodipodi:cy="385.21933"
       sodipodi:rx="2.1428571"
       sodipodi:ry="2.1428571"
       d="m 63.571427,385.21933 c 0,1.18347 -0.95939,2.14286 -2.142857,2.14286 -1.183467,0 -2.142857,-0.95939 -2.142857,-2.14286 0,-1.18347 0.95939,-2.14286 2.142857,-2.14286 1.183467,0 2.142857,0.95939 2.142857,2.14286 z"
       transform="matrix(1.1416105,0,0,2.1250124,561.56029,-158.91508)" />
    <path
       transform="matrix(1.1416105,0,0,2.1250124,620.04084,-168.24759)"
       d="m 63.571427,385.21933 c 0,1.18347 -0.95939,2.14286 -2.142857,2.14286 -1.183467,0 -2.142857,-0.95939 -2.142857,-2.14286 0,-1.18347 0.95939,-2.14286 2.142857,-2.14286 1.183467,0 2.142857,0.95939 2.142857,2.14286 z"
       sodipodi:ry="2.1428571"
       sodipodi:rx="2.1428571"
       sodipodi:cy="385.21933"
       sodipodi:cx="61.42857"
       id="path3680"
       style="fill:#000000;fill-opacity:0;stroke:#000000;stroke-width:3.78828406;stroke-miterlimit:4;stroke-opacity:1;stroke-dasharray:none"
       sodipodi:type="arc" />
    <path
       sodipodi:type="arc"
       style="fill:#000000;fill-opacity:0;stroke:#000000;stroke-width:3.78828406;stroke-miterlimit:4;stroke-opacity:1;stroke-dasharray:none"
       id="path3682"
       sodipodi:cx="61.42857"
       sodipodi:cy="385.21933"
       sodipodi:rx="2.1428571"
       sodipodi:ry="2.1428571"
       d="m 63.571427,385.21933 c 0,1.18347 -0.95939,2.14286 -2.142857,2.14286 -1.183467,0 -2.142857,-0.95939 -2.142857,-2.14286 0,-1.18347 0.95939,-2.14286 2.142857,-2.14286 1.183467,0 2.142857,0.95939 2.142857,2.14286 z"
       transform="matrix(1.1416105,0,0,2.1250124,620.04084,-137.4519)" />
    <path
       transform="matrix(1.1416105,0,0,2.1250124,558.44945,-137.4519)"
       d="m 63.571427,385.21933 c 0,1.18347 -0.95939,2.14286 -2.142857,2.14286 -1.183467,0 -2.142857,-0.95939 -2.142857,-2.14286 0,-1.18347 0.95939,-2.14286 2.142857,-2.14286 1.183467,0 2.142857,0.95939 2.142857,2.14286 z"
       sodipodi:ry="2.1428571"
       sodipodi:rx="2.1428571"
       sodipodi:cy="385.21933"
       sodipodi:cx="61.42857"
       id="path3684"
       style="fill:#000000;fill-opacity:0;stroke:#000000;stroke-width:3.78828406;stroke-miterlimit:4;stroke-opacity:1;stroke-dasharray:none"
       sodipodi:type="arc" />
    <path
       sodipodi:type="arc"
       style="fill:#000000;fill-opacity:0;stroke:#000000;stroke-width:3.78828406;stroke-miterlimit:4;stroke-opacity:1;stroke-dasharray:none"
       id="path3686"
       sodipodi:cx="61.42857"
       sodipodi:cy="385.21933"
       sodipodi:rx="2.1428571"
       sodipodi:ry="2.1428571"
       d="m 63.571427,385.21933 c 0,1.18347 -0.95939,2.14286 -2.142857,2.14286 -1.183467,0 -2.142857,-0.95939 -2.142857,-2.14286 0,-1.18347 0.95939,-2.14286 2.142857,-2.14286 1.183467,0 2.142857,0.95939 2.142857,2.14286 z"
       transform="matrix(1.1416105,0,0,2.1250124,576.92687,-69.70136)" />
    <path
       transform="matrix(1.1416105,0,0,2.1250124,589.24515,-118.97448)"
       d="m 63.571427,385.21933 c 0,1.18347 -0.95939,2.14286 -2.142857,2.14286 -1.183467,0 -2.142857,-0.95939 -2.142857,-2.14286 0,-1.18347 0.95939,-2.14286 2.142857,-2.14286 1.183467,0 2.142857,0.95939 2.142857,2.14286 z"
       sodipodi:ry="2.1428571"
       sodipodi:rx="2.1428571"
       sodipodi:cy="385.21933"
       sodipodi:cx="61.42857"
       id="path3688"
       style="fill:#000000;fill-opacity:0;stroke:#000000;stroke-width:3.78828406;stroke-miterlimit:4;stroke-opacity:1;stroke-dasharray:none"
       sodipodi:type="arc" />
    <path
       sodipodi:type="arc"
       style="fill:#000000;fill-opacity:0;stroke:#000000;stroke-width:3.78828406;stroke-miterlimit:4;stroke-opacity:1;stroke-dasharray:none"
       id="path3690"
       sodipodi:cx="61.42857"
       sodipodi:cy="385.21933"
       sodipodi:rx="2.1428571"
       sodipodi:ry="2.1428571"
       d="m 63.571427,385.21933 c 0,1.18347 -0.95939,2.14286 -2.142857,2.14286 -1.183467,0 -2.142857,-0.95939 -2.142857,-2.14286 0,-1.18347 0.95939,-2.14286 2.142857,-2.14286 1.183467,0 2.142857,0.95939 2.142857,2.14286 z"
       transform="matrix(1.1416105,0,0,2.1250124,620.04084,-88.17878)" />
    <path
       transform="matrix(1.1416105,0,0,2.1250124,558.44945,-88.17878)"
       d="m 63.571427,385.21933 c 0,1.18347 -0.95939,2.14286 -2.142857,2.14286 -1.183467,0 -2.142857,-0.95939 -2.142857,-2.14286 0,-1.18347 0.95939,-2.14286 2.142857,-2.14286 1.183467,0 2.142857,0.95939 2.142857,2.14286 z"
       sodipodi:ry="2.1428571"
       sodipodi:rx="2.1428571"
       sodipodi:cy="385.21933"
       sodipodi:cx="61.42857"
       id="path3692"
       style="fill:#000000;fill-opacity:0;stroke:#000000;stroke-width:3.78828406;stroke-miterlimit:4;stroke-opacity:1;stroke-dasharray:none"
       sodipodi:type="arc" />
    <path
       sodipodi:type="arc"
       style="fill:#000000;fill-opacity:0;stroke:#000000;stroke-width:3.78828406;stroke-miterlimit:4;stroke-opacity:1;stroke-dasharray:none"
       id="path3694"
       sodipodi:cx="61.42857"
       sodipodi:cy="385.21933"
       sodipodi:rx="2.1428571"
       sodipodi:ry="2.1428571"
       d="m 63.571427,385.21933 c 0,1.18347 -0.95939,2.14286 -2.142857,2.14286 -1.183467,0 -2.142857,-0.95939 -2.142857,-2.14286 0,-1.18347 0.95939,-2.14286 2.142857,-2.14286 1.183467,0 2.142857,0.95939 2.142857,2.14286 z"
       transform="matrix(1.1416105,0,0,2.1250124,558.44945,-88.17878)" />
    <path
       transform="matrix(1.1416105,0,0,2.1250124,595.40429,-100.49706)"
       d="m 63.571427,385.21933 c 0,1.18347 -0.95939,2.14286 -2.142857,2.14286 -1.183467,0 -2.142857,-0.95939 -2.142857,-2.14286 0,-1.18347 0.95939,-2.14286 2.142857,-2.14286 1.183467,0 2.142857,0.95939 2.142857,2.14286 z"
       sodipodi:ry="2.1428571"
       sodipodi:rx="2.1428571"
       sodipodi:cy="385.21933"
       sodipodi:cx="61.42857"
       id="path3696"
       style="fill:#000000;fill-opacity:0;stroke:#000000;stroke-width:3.78828406;stroke-miterlimit:4;stroke-opacity:1;stroke-dasharray:none"
       sodipodi:type="arc" />
    <path
       sodipodi:type="arc"
       style="fill:#000000;fill-opacity:0;stroke:#000000;stroke-width:3.78828406;stroke-miterlimit:4;stroke-opacity:1;stroke-dasharray:none"
       id="path3698"
       sodipodi:cx="61.42857"
       sodipodi:cy="385.21933"
       sodipodi:rx="2.1428571"
       sodipodi:ry="2.1428571"
       d="m 63.571427,385.21933 c 0,1.18347 -0.95939,2.14286 -2.142857,2.14286 -1.183467,0 -2.142857,-0.95939 -2.142857,-2.14286 0,-1.18347 0.95939,-2.14286 2.142857,-2.14286 1.183467,0 2.142857,0.95939 2.142857,2.14286 z"
       transform="matrix(1.1416105,0,0,2.1250124,583.08601,-51.223945)" />
    <path
       transform="matrix(1.1416105,0,0,2.1250124,576.92687,-174.40673)"
       d="m 63.571427,385.21933 c 0,1.18347 -0.95939,2.14286 -2.142857,2.14286 -1.183467,0 -2.142857,-0.95939 -2.142857,-2.14286 0,-1.18347 0.95939,-2.14286 2.142857,-2.14286 1.183467,0 2.142857,0.95939 2.142857,2.14286 z"
       sodipodi:ry="2.1428571"
       sodipodi:rx="2.1428571"
       sodipodi:cy="385.21933"
       sodipodi:cx="61.42857"
       id="path3700"
       style="fill:#000000;fill-opacity:0;stroke:#000000;stroke-width:3.78828406;stroke-miterlimit:4;stroke-opacity:1;stroke-dasharray:none"
       sodipodi:type="arc" />
    <path
       sodipodi:type="arc"
       style="fill:#000000;fill-opacity:0;stroke:#000000;stroke-width:3.78828406;stroke-miterlimit:4;stroke-opacity:1;stroke-dasharray:none"
       id="path3702"
       sodipodi:cx="61.42857"
       sodipodi:cy="385.21933"
       sodipodi:rx="2.1428571"
       sodipodi:ry="2.1428571"
       d="m 63.571427,385.21933 c 0,1.18347 -0.95939,2.14286 -2.142857,2.14286 -1.183467,0 -2.142857,-0.95939 -2.142857,-2.14286 0,-1.18347 0.95939,-2.14286 2.142857,-2.14286 1.183467,0 2.142857,0.95939 2.142857,2.14286 z"
       transform="matrix(1.1416105,0,0,2.1250124,626.19998,-125.13362)" />
    <g
       transform="matrix(0.59443845,0,0,0.59443845,275.12193,126.89523)"
       id="g5963">
      <g
         style="font-style:normal;font-variant:normal;font-weight:normal;font-stretch:normal;letter-spacing:normal;word-spacing:normal;text-anchor:start;fill:none;stroke:#000000;stroke-linecap:butt;stroke-linejoin:miter;stroke-miterlimit:10.43299961;stroke-opacity:1;stroke-dasharray:none;stroke-dashoffset:0"
         id="content"
         transform="matrix(1.0629921,0,0,-1.0629921,-186.02362,789.27165)"
         xml:space="preserve"
         stroke-miterlimit="10.433"
         font-style="normal"
         font-variant="normal"
         font-weight="normal"
         font-stretch="normal"
         font-size-adjust="none"
         letter-spacing="normal"
         word-spacing="normal"><path
           style="fill:#000000;stroke-width:0"
           inkscape:connector-curvature="0"
           d="m 487.91,293.88 -0.07,-0.06 -0.07,-0.07 -0.08,-0.07 -0.08,-0.07 -0.08,-0.08 -0.09,-0.08 -0.09,-0.09 -0.1,-0.09 -0.09,-0.08 -0.1,-0.1 -0.19,-0.19 -0.2,-0.19 -0.19,-0.21 -0.09,-0.1 -0.09,-0.1 -0.09,-0.1 -0.08,-0.11 -0.08,-0.1 -0.08,-0.1 -0.07,-0.1 -0.06,-0.1 -0.06,-0.1 -0.06,-0.1 -0.04,-0.1 -0.04,-0.09 -0.03,-0.1 -0.03,-0.09 -0.01,-0.08 0,-0.09 c 0,-0.5 0.5,-1 1,-1 0.45,0 0.7,0.36 0.95,0.66 0.59,0.75 1.73,2.14 3.94,3.23 0.34,0.21 0.84,0.46 0.84,1.05 0,0.5 -0.34,0.75 -0.7,1 -1.1,0.75 -1.64,1.64 -2.05,2.83 -0.09,0.45 -0.3,1.11 -0.98,1.11 -0.71,0 -1,-0.66 -1,-1.05 0,-0.25 0.39,-1.84 1.18,-2.89 h -16.78 c -0.84,0 -1.75,0 -1.75,-1 0,-1 0.91,-1 1.75,-1 z"
           id="path5966" /><path
           style="fill:#000000;stroke-width:0"
           inkscape:connector-curvature="0"
           d="m 459.91,267.18 -0.02,-0.08 -0.01,-0.07 -0.02,-0.07 -0.02,-0.08 -0.03,-0.16 -0.04,-0.16 -0.04,-0.16 -0.04,-0.17 -0.03,-0.16 -0.04,-0.15 -0.02,-0.08 -0.01,-0.07 -0.02,-0.08 -0.01,-0.07 -0.02,-0.06 -0.01,-0.07 -0.02,-0.06 -0.01,-0.06 -0.01,-0.06 -0.01,-0.05 -0.01,-0.05 0,-0.04 -0.01,-0.04 0,-0.04 -0.01,-0.03 0,-0.02 c 0,-0.9 0.71,-1.35 1.44,-1.35 0.61,0 1.5,0.39 1.84,1.39 0.07,0.11 0.66,2.44 0.96,3.69 l 1.09,4.48 c 0.3,1.1 0.6,2.19 0.84,3.35 0.21,0.84 0.61,2.28 0.66,2.48 0.75,1.55 3.39,6.08 8.11,6.08 2.25,0 2.7,-1.84 2.7,-3.48 0,-1.25 -0.36,-2.64 -0.75,-4.14 l -1.39,-5.79 -1,-3.78 c -0.2,-1 -0.65,-2.68 -0.65,-2.93 0,-0.9 0.7,-1.35 1.45,-1.35 1.55,0 1.84,1.25 2.23,2.85 0.71,2.78 2.55,10.06 3,12 0.14,0.65 2.79,6.62 8.22,6.62 2.14,0 2.69,-1.69 2.69,-3.48 0,-2.85 -2.09,-8.52 -3.09,-11.16 -0.46,-1.2 -0.64,-1.75 -0.64,-2.75 0,-2.33 1.73,-4.08 4.07,-4.08 4.69,0 6.54,7.27 6.54,7.67 0,0.5 -0.46,0.5 -0.6,0.5 -0.5,0 -0.5,-0.15 -0.75,-0.9 -0.75,-2.64 -2.34,-6.17 -5.08,-6.17 -0.86,0 -1.2,0.5 -1.2,1.64 0,1.25 0.45,2.45 0.89,3.54 0.95,2.58 3.05,8.11 3.05,10.96 0,3.23 -2,5.32 -5.74,5.32 -3.73,0 -6.26,-2.18 -8.11,-4.82 -0.06,0.65 -0.2,2.34 -1.61,3.53 -1.23,1.04 -2.82,1.29 -4.07,1.29 -4.49,0 -6.93,-3.18 -7.77,-4.32 -0.25,2.84 -2.34,4.32 -4.59,4.32 -2.28,0 -3.24,-1.93 -3.69,-2.82 -0.89,-1.75 -1.55,-4.69 -1.55,-4.85 0,-0.5 0.5,-0.5 0.61,-0.5 0.5,0 0.55,0.06 0.85,1.16 0.84,3.53 1.84,5.92 3.64,5.92 0.79,0 1.54,-0.39 1.54,-2.28 0,-1.05 -0.15,-1.61 -0.79,-4.19 z"
           id="path5968" /><path
           style="fill:#000000;stroke-width:0"
           inkscape:connector-curvature="0"
           d="m 528.57,280.73 0,0.01 0,0.02 0,0.02 0,0.02 0,0.01 -0.01,0.02 0,0.02 -0.01,0.02 0,0.02 -0.01,0.02 -0.01,0.02 -0.01,0.02 -0.01,0.01 -0.01,0.02 -0.01,0.02 -0.01,0.02 -0.02,0.01 -0.01,0.02 -0.02,0.02 -0.01,0.01 -0.02,0.02 -0.02,0.01 -0.02,0.01 -0.02,0.01 -0.03,0.01 -0.02,0.01 -0.02,0.01 -0.03,0.01 -0.01,0 -0.02,0 -0.01,0.01 -0.02,0 -0.01,0 -0.02,0 -0.01,0 -0.02,0 c -0.25,0 -0.31,-0.08 -0.62,-0.42 l -2.55,-2.69 c -0.31,0.42 -2.27,3.11 -6.55,3.11 -8.47,0 -16.76,-7.5 -16.76,-15.38 0,-5.67 4.47,-9.82 10.7,-9.82 1.88,0 5.22,0.39 8.81,3.42 2.75,2.33 3.52,5.36 3.52,5.64 0,0.45 -0.42,0.45 -0.6,0.45 -0.45,0 -0.51,-0.17 -0.62,-0.54 -1.42,-4.79 -6.31,-7.71 -10.52,-7.71 -3.7,0 -7.81,1.99 -7.81,7.49 0,1.01 0.25,6.51 4.25,10.9 2.41,2.69 6.06,4.28 9.38,4.28 4.04,0 6.4,-2.92 6.4,-6.82 0,-0.97 -0.09,-1.22 -0.09,-1.43 0,-0.45 0.45,-0.45 0.62,-0.45 0.57,0 0.57,0.11 0.74,0.77 z"
           id="path5970" /><path
           style="fill:#000000;stroke-width:0"
           inkscape:connector-curvature="0"
           d="m 545.18,269.77 -0.09,-0.02 -0.08,-0.02 -0.08,-0.03 -0.08,-0.03 -0.07,-0.03 -0.08,-0.03 -0.07,-0.04 -0.07,-0.04 -0.06,-0.04 -0.07,-0.05 -0.06,-0.04 -0.06,-0.05 -0.05,-0.05 -0.06,-0.05 -0.05,-0.05 -0.05,-0.06 -0.04,-0.05 -0.05,-0.06 -0.04,-0.06 -0.04,-0.06 -0.03,-0.06 -0.03,-0.06 -0.03,-0.06 -0.03,-0.07 -0.02,-0.06 -0.03,-0.06 -0.01,-0.07 -0.02,-0.06 -0.01,-0.07 -0.01,-0.06 0,-0.07 0,-0.06 c 0,-0.81 0.7,-1.13 1.15,-1.13 0.35,0 1.67,0.22 1.67,1.99 0,2.26 -2.5,3.03 -4.62,3.03 -5.44,0 -6.42,-4 -6.42,-5.08 0,-1.3 0.73,-2.12 1.22,-2.55 0.9,-0.7 1.53,-0.82 3.94,-1.25 0.73,-0.14 2.96,-0.56 2.96,-2.29 0,-0.6 -0.39,-1.92 -1.84,-2.8 -1.36,-0.77 -3.08,-0.77 -3.49,-0.77 -1.4,0 -3.38,0.32 -4.18,1.47 1.15,0.14 1.92,1 1.92,1.99 0,0.87 -0.62,1.28 -1.36,1.28 -1.01,0 -2.03,-0.8 -2.03,-2.33 0,-2.09 2.23,-3.37 5.61,-3.37 6.42,0 7.61,4.39 7.61,5.75 0,3.2 -3.53,3.82 -4.82,4.07 -0.31,0.07 -1.18,0.21 -1.38,0.27 -1.3,0.25 -1.93,0.98 -1.93,1.75 0,0.8 0.63,1.73 1.39,2.23 0.94,0.6 2.16,0.66 2.75,0.66 0.74,0 2.55,-0.11 3.32,-1.3 z"
           id="path5972" /><path
           style="fill:#000000;stroke-width:0"
           inkscape:connector-curvature="0"
           d="m 573.73,280.73 0,0.01 0,0.02 0,0.02 0,0.02 0,0.01 -0.01,0.02 0,0.02 -0.01,0.02 0,0.02 -0.01,0.02 -0.01,0.02 0,0.02 -0.01,0.01 -0.01,0.02 -0.02,0.02 -0.01,0.02 -0.01,0.01 -0.02,0.02 -0.01,0.02 -0.02,0.01 -0.02,0.02 -0.01,0.01 -0.02,0.01 -0.03,0.01 -0.02,0.01 -0.02,0.01 -0.03,0.01 -0.01,0 -0.02,0.01 -0.01,0 -0.01,0 -0.02,0.01 -0.01,0 -0.02,0 -0.02,0 -0.01,0 -0.02,0 c -0.2,0 -0.23,-0.05 -0.69,-0.5 l -1.71,-1.98 c -1.32,1.85 -3.52,2.48 -5.65,2.48 -4.9,0 -9.26,-3.98 -9.26,-7.98 0,-0.52 0.11,-1.93 1.15,-3.21 1.18,-1.39 2.47,-1.7 4.85,-2.26 0.69,-0.18 2.44,-0.57 2.95,-0.71 1.11,-0.28 3.25,-1.04 3.25,-3.65 0,-2.82 -2.97,-6.13 -6.94,-6.13 -3.06,0 -6.76,1.08 -6.76,4.94 0,0.36 0.08,1.12 0.2,1.75 0.05,0.14 0.05,0.17 0.05,0.2 0,0.46 -0.42,0.46 -0.56,0.46 -0.49,0 -0.52,-0.07 -0.66,-0.69 l -1.78,-6.97 c -0.03,-0.14 -0.11,-0.36 -0.11,-0.53 0,-0.2 0.14,-0.42 0.48,-0.42 0.22,0 0.25,0.04 0.71,0.5 0.39,0.4 1.29,1.53 1.67,1.95 1.84,-2.03 4.56,-2.45 6.65,-2.45 5.27,0 9.52,4.53 9.52,8.64 0,1.54 -0.62,2.93 -1.39,3.73 -1.22,1.25 -1.75,1.39 -6.25,2.44 -0.72,0.17 -1.88,0.45 -2.19,0.56 -0.87,0.31 -2.33,1.19 -2.33,3.17 0,2.75 3.1,5.53 6.72,5.53 3.77,0 5.58,-2.12 5.58,-5.43 0,-0.46 -0.14,-1.25 -0.14,-1.57 0,-0.48 0.42,-0.48 0.59,-0.48 0.52,0 0.55,0.17 0.69,0.77 z"
           id="path5974" /><path
           style="fill:#000000;stroke-width:0"
           inkscape:connector-curvature="0"
           d="m 583.58,263.71 0,0.01 0.01,0.02 0,0.02 0.01,0.02 0,0.03 0.01,0.03 0.01,0.04 0.01,0.04 0.01,0.04 0.01,0.05 0.01,0.04 0.01,0.05 0.01,0.06 0.02,0.05 0.03,0.12 0.03,0.13 0.03,0.13 0.04,0.14 0.04,0.15 0.03,0.15 0.04,0.15 0.08,0.31 0.08,0.32 0.04,0.15 0.04,0.15 0.04,0.14 0.04,0.14 0.03,0.13 0.03,0.13 0.04,0.11 0.01,0.06 0.01,0.05 0.02,0.05 0.01,0.05 0.01,0.04 0.01,0.04 0.01,0.04 0.01,0.03 0.01,0.03 0.01,0.03 0,0.02 0.01,0.02 0,0.01 0.01,0.01 c 0.08,0.28 1.08,2.02 2.2,2.86 0.38,0.27 1.31,0.97 2.81,0.97 0.35,0 1.22,-0.03 1.93,-0.48 -1.13,-0.32 -1.53,-1.3 -1.53,-1.93 0,-0.76 0.59,-1.28 1.38,-1.28 0.8,0 1.96,0.66 1.96,2.13 0,1.81 -1.92,2.53 -3.71,2.53 -1.81,0 -3.37,-0.72 -4.9,-2.47 -0.63,2.13 -2.75,2.47 -3.6,2.47 -1.28,0 -2.15,-0.8 -2.71,-1.77 -0.8,-1.36 -1.29,-3.39 -1.29,-3.56 0,-0.45 0.49,-0.45 0.6,-0.45 0.48,0 0.52,0.11 0.77,1.04 0.51,2.13 1.18,3.77 2.54,3.77 0.91,0 1.14,-0.77 1.14,-1.7 0,-0.67 -0.31,-1.96 -0.56,-2.89 -0.24,-0.96 -0.58,-2.38 -0.77,-3.14 l -1.1,-4.47 c -0.15,-0.44 -0.35,-1.32 -0.35,-1.42 0,-0.77 0.63,-1.11 1.19,-1.11 0.51,0 1.22,0.31 1.48,1 0.08,0.21 0.46,1.75 0.68,2.62 z"
           id="path5976" /><path
           style="fill:#000000;stroke-width:0"
           inkscape:connector-curvature="0"
           d="m 645.63,280.54 0.14,0 0.15,0 0.14,0 0.07,0.01 0.08,0 0.07,0.01 0.07,0.01 0.07,0.01 0.07,0.01 0.07,0.01 0.06,0.02 0.07,0.02 0.06,0.02 0.06,0.02 0.06,0.03 0.06,0.03 0.05,0.04 0.05,0.03 0.05,0.05 0.04,0.04 0.04,0.05 0.02,0.03 0.02,0.02 0.01,0.03 0.02,0.03 0.01,0.03 0.01,0.04 0.02,0.03 0.01,0.03 0.01,0.04 0.01,0.04 0,0.04 0.01,0.04 0,0.04 0.01,0.04 0,0.04 0,0.05 c 0,1 -0.95,1 -1.64,1 h -29.84 c -0.71,0 -1.64,0 -1.64,-1 0,-0.98 0.93,-0.98 1.68,-0.98 z"
           id="path5978" /><path
           style="fill:#000000;stroke-width:0"
           inkscape:connector-curvature="0"
           d="m 645.68,270.86 0.07,0 0.06,0 0.14,0 0.14,0.01 0.07,0 0.07,0.01 0.07,0.01 0.06,0 0.07,0.01 0.07,0.02 0.07,0.01 0.06,0.02 0.07,0.02 0.06,0.02 0.06,0.02 0.05,0.03 0.06,0.03 0.05,0.04 0.05,0.04 0.05,0.04 0.04,0.04 0.02,0.03 0.02,0.02 0.02,0.03 0.02,0.03 0.01,0.03 0.02,0.03 0.01,0.03 0.01,0.03 0.02,0.04 0.01,0.03 0.01,0.04 0.01,0.04 0,0.04 0.01,0.04 0,0.04 0.01,0.04 0,0.05 0,0.04 c 0,1 -0.95,1 -1.69,1 h -29.75 c -0.75,0 -1.68,0 -1.68,-1 0,-1 0.93,-1 1.64,-1 z"
           id="path5980" /><polygon
           style="fill:#000000;stroke-width:0"
           points="683.63,366.27 683.63,452.46 696.79,452.46 696.79,455.9 680.2,455.9 680.2,366.27 "
           id="polygon5982" /><polygon
           style="fill:#000000;stroke-width:0"
           points="680.2,366.41 680.2,336.42 683.63,336.42 683.63,366.41 "
           id="polygon5984" /><polygon
           style="fill:#000000;stroke-width:0"
           points="680.2,336.53 680.2,306.54 683.63,306.54 683.63,336.53 "
           id="polygon5986" /><polygon
           style="fill:#000000;stroke-width:0"
           points="680.2,306.65 680.2,276.66 683.63,276.66 683.63,306.65 "
           id="polygon5988" /><polygon
           style="fill:#000000;stroke-width:0"
           points="680.2,276.77 680.2,246.78 683.63,246.78 683.63,276.77 "
           id="polygon5990" /><polygon
           style="fill:#000000;stroke-width:0"
           points="680.2,246.77 680.2,216.78 683.63,216.78 683.63,246.77 "
           id="polygon5992" /><polygon
           style="fill:#000000;stroke-width:0"
           points="680.2,216.89 680.2,186.9 683.63,186.9 683.63,216.89 "
           id="polygon5994" /><polygon
           style="fill:#000000;stroke-width:0"
           points="696.79,97.398 696.79,100.84 683.63,100.84 683.63,187.04 680.2,187.04 680.2,97.398 "
           id="polygon5996" /><path
           style="fill:#000000;stroke-width:0"
           inkscape:connector-curvature="0"
           d="m 733.71,454.39 0,0.05 0,0.04 0,0.04 0,0.04 0,0.04 0,0.04 0,0.04 0,0.03 -0.01,0.03 0,0.04 0,0.03 0,0.03 0,0.03 -0.01,0.03 0,0.02 0,0.03 -0.01,0.03 0,0.02 -0.01,0.02 0,0.03 -0.02,0.04 -0.01,0.04 -0.02,0.03 -0.02,0.03 -0.02,0.03 -0.02,0.02 -0.03,0.03 -0.03,0.02 -0.04,0.01 -0.03,0.02 -0.04,0.01 -0.05,0.01 -0.02,0.01 -0.03,0 -0.02,0.01 -0.03,0 -0.02,0 -0.03,0.01 -0.03,0 -0.03,0 -0.04,0 -0.03,0 -0.03,0 -0.04,0.01 -0.04,0 -0.03,0 -0.04,0 -0.04,0 -0.04,0 -0.05,0 -0.04,0 -0.05,0 c -2.23,-2.2 -5.39,-2.24 -6.82,-2.24 v -1.25 c 0.84,0 3.14,0 5.04,0.97 V 435.1 c 0,-1.16 0,-1.61 -3.48,-1.61 h -1.31 v -1.25 c 0.62,0.03 4.9,0.14 6.2,0.14 1.08,0 5.47,-0.11 6.23,-0.14 v 1.25 h -1.32 c -3.49,0 -3.49,0.45 -3.49,1.61 z"
           id="path5998" /><path
           style="fill:#000000;stroke-width:0"
           inkscape:connector-curvature="0"
           d="m 751.35,443.88 0.25,-0.01 0.25,-0.01 0.25,-0.03 0.23,-0.04 0.24,-0.05 0.22,-0.06 0.22,-0.07 0.22,-0.08 0.21,-0.1 0.2,-0.1 0.2,-0.12 0.18,-0.13 0.19,-0.13 0.17,-0.15 0.17,-0.16 0.16,-0.17 0.15,-0.18 0.14,-0.19 0.14,-0.21 0.12,-0.21 0.12,-0.23 0.11,-0.23 0.1,-0.25 0.09,-0.26 0.08,-0.26 0.06,-0.28 0.06,-0.29 0.05,-0.3 0.04,-0.31 0.03,-0.32 0.02,-0.34 0,-0.34 c 0,-4.33 -2.51,-5.61 -4.53,-5.61 -1.39,0 -4.47,0.38 -5.92,2.44 1.63,0.06 2.02,1.22 2.02,1.95 0,1.11 -0.85,1.91 -1.93,1.91 -0.96,0 -1.95,-0.6 -1.95,-2.02 0,-3.28 3.63,-5.4 7.84,-5.4 4.85,0 8.19,3.25 8.19,6.73 0,2.72 -2.22,5.44 -6.06,6.23 3.66,1.33 4.98,3.94 4.98,6.07 0,2.75 -3.17,4.81 -7.03,4.81 -3.87,0 -6.83,-1.89 -6.83,-4.67 0,-1.19 0.77,-1.85 1.82,-1.85 1.08,0 1.76,0.8 1.76,1.77 0,1.01 -0.68,1.75 -1.76,1.81 1.22,1.55 3.61,1.92 4.9,1.92 1.57,0 3.77,-0.76 3.77,-3.79 0,-1.47 -0.49,-3.07 -1.39,-4.14 -1.16,-1.33 -2.13,-1.41 -3.88,-1.5 -0.87,-0.08 -0.93,-0.08 -1.11,-0.11 -0.07,0 -0.36,-0.07 -0.36,-0.46 0,-0.48 0.32,-0.48 0.91,-0.48 z"
           id="path6000" /><path
           style="fill:#000000;stroke-width:0"
           inkscape:connector-curvature="0"
           d="m 780.07,437.96 v 1.25 h -3.87 v 15.54 c 0,0.72 0,0.97 -0.77,0.97 -0.42,0 -0.56,0 -0.91,-0.48 l -11.53,-16.03 v -1.25 h 10.25 l 0.24,1.25 h -9.21 l 9.21,12.75 v -12.75 l -0.24,-1.25 v -2.86 c 0,-1.19 0,-1.61 -2.83,-1.61 h -0.93 v -1.25 c 1.73,0.06 3.97,0.14 5.22,0.14 1.29,0 3.51,-0.08 5.26,-0.14 v 1.25 h -0.94 c -2.82,0 -2.82,0.42 -2.82,1.61 v 2.86 z"
           id="path6002" /><path
           style="fill:#000000;stroke-width:0"
           inkscape:connector-curvature="0"
           d="m 821.94,448.75 0,0.01 0,0.02 0,0.01 -0.01,0.02 0,0.02 0,0.02 -0.01,0.02 0,0.02 -0.01,0.02 -0.01,0.02 -0.01,0.02 -0.01,0.02 -0.01,0.02 -0.01,0.02 -0.01,0.02 -0.02,0.02 -0.01,0.02 -0.02,0.02 -0.02,0.02 -0.02,0.02 -0.02,0.02 -0.02,0.01 -0.03,0.02 -0.02,0.01 -0.03,0.01 -0.02,0.01 -0.01,0 -0.02,0.01 -0.01,0 -0.02,0.01 -0.02,0 -0.01,0 -0.02,0.01 -0.02,0 -0.02,0 -0.02,0 -0.02,0.01 -0.02,0 -0.02,0 c -0.14,0 -0.2,-0.05 -0.75,-0.6 l -3.48,-3.84 c -0.44,0.7 -2.74,4.44 -8.27,4.44 -11.11,0 -22.33,-11.02 -22.33,-22.57 0,-8.23 5.89,-13.65 13.52,-13.65 4.33,0 8.11,1.98 10.75,4.28 4.64,4.09 5.48,8.62 5.48,8.76 0,0.5 -0.5,0.5 -0.59,0.5 -0.3,0 -0.55,-0.09 -0.66,-0.5 -0.44,-1.43 -1.59,-4.98 -5.03,-7.87 -3.44,-2.78 -6.58,-3.63 -9.15,-3.63 -4.49,0 -9.77,2.6 -9.77,10.36 0,2.85 1.05,10.91 6.01,16.74 3.05,3.54 7.74,6.03 12.16,6.03 5.1,0 8.03,-3.83 8.03,-9.61 0,-2 -0.15,-2.05 -0.15,-2.55 0,-0.5 0.54,-0.5 0.75,-0.5 0.64,0 0.64,0.11 0.89,1 z"
           id="path6004" /><path
           style="fill:#000000;stroke-width:0"
           inkscape:connector-curvature="0"
           d="m 842.8,432.76 -0.13,-0.01 -0.13,-0.01 -0.12,-0.02 -0.13,-0.03 -0.12,-0.03 -0.11,-0.04 -0.12,-0.04 -0.11,-0.04 -0.1,-0.05 -0.11,-0.06 -0.1,-0.06 -0.09,-0.06 -0.1,-0.07 -0.09,-0.07 -0.08,-0.07 -0.08,-0.08 -0.08,-0.08 -0.07,-0.08 -0.07,-0.08 -0.06,-0.09 -0.06,-0.09 -0.06,-0.09 -0.05,-0.1 -0.04,-0.09 -0.04,-0.1 -0.04,-0.1 -0.03,-0.1 -0.02,-0.1 -0.02,-0.1 -0.02,-0.1 -0.01,-0.11 0,-0.1 c 0,-0.7 0.44,-1.44 1.55,-1.44 1.09,0 2.28,0.85 2.28,2.79 0,2.25 -2.14,4.28 -5.92,4.28 -6.58,0 -8.42,-5.08 -8.42,-7.27 0,-3.89 3.68,-4.64 5.12,-4.94 2.59,-0.5 5.19,-1.04 5.19,-3.78 0,-1.29 -1.14,-5.48 -7.13,-5.48 -0.7,0 -4.53,0 -5.68,2.64 1.9,-0.25 3.13,1.25 3.13,2.64 0,1.14 -0.79,1.75 -1.84,1.75 -1.29,0 -2.78,-1.05 -2.78,-3.3 0,-2.84 2.84,-4.83 7.12,-4.83 8.07,0 10.02,6.04 10.02,8.27 0,1.8 -0.95,3.05 -1.55,3.64 -1.34,1.39 -2.79,1.64 -4.98,2.09 -1.8,0.39 -3.78,0.75 -3.78,2.99 0,1.45 1.19,4.48 5.58,4.48 1.23,0 3.73,-0.34 4.48,-2.28 z"
           id="path6006" /><path
           style="fill:#000000;stroke-width:0"
           inkscape:connector-curvature="0"
           d="m 733.71,394.64 0,0.04 0,0.04 0,0.05 0,0.04 0,0.03 0,0.04 0,0.04 0,0.03 -0.01,0.04 0,0.03 0,0.03 0,0.03 0,0.03 -0.01,0.03 0,0.03 0,0.02 -0.01,0.03 0,0.02 -0.01,0.03 0,0.02 -0.02,0.04 -0.01,0.04 -0.02,0.03 -0.02,0.03 -0.02,0.03 -0.02,0.03 -0.03,0.02 -0.03,0.02 -0.04,0.02 -0.03,0.01 -0.04,0.01 -0.05,0.01 -0.02,0.01 -0.03,0 -0.02,0.01 -0.03,0 -0.02,0 -0.03,0.01 -0.03,0 -0.03,0 -0.04,0 -0.03,0.01 -0.03,0 -0.04,0 -0.04,0 -0.03,0 -0.04,0 -0.04,0 -0.04,0 -0.05,0 -0.04,0 -0.05,0 c -2.23,-2.2 -5.39,-2.23 -6.82,-2.23 v -1.25 c 0.84,0 3.14,0 5.04,0.97 v -17.77 c 0,-1.16 0,-1.61 -3.48,-1.61 h -1.31 v -1.25 c 0.62,0.03 4.9,0.14 6.2,0.14 1.08,0 5.47,-0.11 6.23,-0.14 v 1.25 h -1.32 c -3.49,0 -3.49,0.45 -3.49,1.61 z"
           id="path6008" /><path
           style="fill:#000000;stroke-width:0"
           inkscape:connector-curvature="0"
           d="m 751.35,384.12 0.25,0 0.25,-0.02 0.25,-0.03 0.23,-0.04 0.24,-0.05 0.22,-0.06 0.22,-0.07 0.22,-0.08 0.21,-0.1 0.2,-0.1 0.2,-0.12 0.18,-0.12 0.19,-0.14 0.17,-0.15 0.17,-0.16 0.16,-0.17 0.15,-0.18 0.14,-0.19 0.14,-0.21 0.12,-0.21 0.12,-0.22 0.11,-0.24 0.1,-0.25 0.09,-0.25 0.08,-0.27 0.06,-0.28 0.06,-0.29 0.05,-0.3 0.04,-0.31 0.03,-0.32 0.02,-0.33 0,-0.35 c 0,-4.33 -2.51,-5.61 -4.53,-5.61 -1.39,0 -4.47,0.38 -5.92,2.44 1.63,0.06 2.02,1.22 2.02,1.95 0,1.11 -0.85,1.91 -1.93,1.91 -0.96,0 -1.95,-0.59 -1.95,-2.02 0,-3.28 3.63,-5.4 7.84,-5.4 4.85,0 8.19,3.25 8.19,6.73 0,2.72 -2.22,5.44 -6.06,6.24 3.66,1.32 4.98,3.93 4.98,6.06 0,2.75 -3.17,4.81 -7.03,4.81 -3.87,0 -6.83,-1.89 -6.83,-4.67 0,-1.19 0.77,-1.84 1.82,-1.84 1.08,0 1.76,0.79 1.76,1.76 0,1.02 -0.68,1.75 -1.76,1.81 1.22,1.55 3.61,1.93 4.9,1.93 1.57,0 3.77,-0.77 3.77,-3.8 0,-1.47 -0.49,-3.06 -1.39,-4.14 -1.16,-1.33 -2.13,-1.41 -3.88,-1.5 -0.87,-0.08 -0.93,-0.08 -1.11,-0.11 -0.07,0 -0.36,-0.06 -0.36,-0.45 0,-0.49 0.32,-0.49 0.91,-0.49 z"
           id="path6010" /><path
           style="fill:#000000;stroke-width:0"
           inkscape:connector-curvature="0"
           d="m 767.04,391.92 0.16,-0.04 0.16,-0.04 0.16,-0.04 0.15,-0.03 0.15,-0.03 0.14,-0.03 0.14,-0.03 0.13,-0.02 0.13,-0.03 0.13,-0.02 0.12,-0.02 0.12,-0.01 0.12,-0.02 0.11,-0.01 0.11,-0.02 0.11,-0.01 0.1,-0.01 0.1,-0.01 0.09,0 0.09,-0.01 0.09,-0.01 0.09,0 0.08,0 0.08,-0.01 0.07,0 0.08,0 0.06,0 0.07,0 0.06,0 0.06,0 0.06,0 0.05,-0.01 c 4.6,0 7.32,3.15 7.32,3.68 0,0.37 -0.24,0.48 -0.41,0.48 -0.08,0 -0.14,0 -0.28,-0.11 -0.84,-0.31 -2.69,-1.01 -5.27,-1.01 -0.97,0 -2.82,0.07 -5.09,0.95 -0.34,0.17 -0.41,0.17 -0.45,0.17 -0.46,0 -0.46,-0.39 -0.46,-0.94 V 384.4 c 0,-0.59 0,-1.01 0.57,-1.01 0.31,0 0.34,0.06 0.7,0.48 1.5,1.92 3.62,2.2 4.84,2.2 2.08,0 3.03,-1.67 3.21,-1.95 0.62,-1.16 0.82,-2.47 0.82,-4.5 0,-1.05 0,-3.09 -1.04,-4.62 -0.86,-1.27 -2.36,-2.1 -4.07,-2.1 -2.26,0 -4.6,1.25 -5.48,3.55 1.33,-0.09 1.98,0.76 1.98,1.7 0,1.5 -1.28,1.78 -1.73,1.78 -0.06,0 -1.75,0 -1.75,-1.87 0,-3.14 2.86,-6.28 7.05,-6.28 4.45,0 8.36,3.31 8.36,7.7 0,3.94 -3,7.56 -7.32,7.56 -1.53,0 -3.34,-0.37 -4.87,-1.7 z"
           id="path6012" /><path
           style="fill:#000000;stroke-width:0"
           inkscape:connector-curvature="0"
           d="m 821.94,388.98 0,0.02 0,0.02 0,0.01 -0.01,0.02 0,0.02 0,0.02 -0.01,0.02 0,0.02 -0.01,0.02 -0.01,0.02 -0.01,0.02 -0.01,0.02 -0.01,0.02 -0.01,0.02 -0.01,0.02 -0.02,0.02 -0.01,0.02 -0.02,0.02 -0.02,0.02 -0.02,0.02 -0.02,0.01 -0.02,0.02 -0.03,0.01 -0.02,0.02 -0.03,0.01 -0.02,0.01 -0.01,0 -0.02,0.01 -0.01,0 -0.02,0.01 -0.02,0 -0.01,0 -0.02,0.01 -0.02,0 -0.02,0 -0.02,0 -0.02,0 -0.02,0 -0.02,0 c -0.14,0 -0.2,-0.04 -0.75,-0.59 l -3.48,-3.84 c -0.44,0.7 -2.74,4.43 -8.27,4.43 -11.11,0 -22.33,-11.01 -22.33,-22.56 0,-8.23 5.89,-13.65 13.52,-13.65 4.33,0 8.11,1.98 10.75,4.28 4.64,4.09 5.48,8.62 5.48,8.76 0,0.5 -0.5,0.5 -0.59,0.5 -0.3,0 -0.55,-0.09 -0.66,-0.5 -0.44,-1.43 -1.59,-4.98 -5.03,-7.87 -3.44,-2.78 -6.58,-3.63 -9.15,-3.63 -4.49,0 -9.77,2.6 -9.77,10.36 0,2.85 1.05,10.91 6.01,16.74 3.05,3.54 7.74,6.03 12.16,6.03 5.1,0 8.03,-3.83 8.03,-9.61 0,-2 -0.15,-2.05 -0.15,-2.55 0,-0.5 0.54,-0.5 0.75,-0.5 0.64,0 0.64,0.11 0.89,1 z"
           id="path6014" /><path
           style="fill:#000000;stroke-width:0"
           inkscape:connector-curvature="0"
           d="m 842.8,373 -0.13,-0.01 -0.13,-0.01 -0.12,-0.02 -0.13,-0.03 -0.12,-0.03 -0.11,-0.04 -0.12,-0.04 -0.11,-0.04 -0.1,-0.05 -0.11,-0.06 -0.1,-0.06 -0.09,-0.06 -0.1,-0.07 -0.09,-0.07 -0.08,-0.07 -0.08,-0.08 -0.08,-0.08 -0.07,-0.08 -0.07,-0.09 -0.06,-0.08 -0.06,-0.09 -0.06,-0.1 -0.05,-0.09 -0.04,-0.1 -0.04,-0.09 -0.04,-0.1 -0.03,-0.1 -0.02,-0.1 -0.02,-0.1 -0.02,-0.11 -0.01,-0.1 0,-0.1 c 0,-0.7 0.44,-1.44 1.55,-1.44 1.09,0 2.28,0.85 2.28,2.78 0,2.25 -2.14,4.29 -5.92,4.29 -6.58,0 -8.42,-5.08 -8.42,-7.27 0,-3.89 3.68,-4.64 5.12,-4.94 2.59,-0.5 5.19,-1.05 5.19,-3.78 0,-1.3 -1.14,-5.48 -7.13,-5.48 -0.7,0 -4.53,0 -5.68,2.64 1.9,-0.25 3.13,1.25 3.13,2.64 0,1.14 -0.79,1.75 -1.84,1.75 -1.29,0 -2.78,-1.05 -2.78,-3.3 0,-2.84 2.84,-4.83 7.12,-4.83 8.07,0 10.02,6.03 10.02,8.27 0,1.8 -0.95,3.04 -1.55,3.64 -1.34,1.39 -2.79,1.64 -4.98,2.09 -1.8,0.39 -3.78,0.75 -3.78,2.99 0,1.45 1.19,4.48 5.58,4.48 1.23,0 3.73,-0.34 4.48,-2.28 z"
           id="path6016" /><path
           style="fill:#000000;stroke-width:0"
           inkscape:connector-curvature="0"
           d="m 787.04,297.24 0,0.14 -0.01,0.13 -0.02,0.13 -0.02,0.13 -0.03,0.13 -0.04,0.12 -0.04,0.12 -0.05,0.12 -0.05,0.12 -0.06,0.11 -0.06,0.11 -0.07,0.11 -0.07,0.1 -0.08,0.1 -0.09,0.1 -0.08,0.09 -0.09,0.09 -0.1,0.08 -0.1,0.08 -0.1,0.08 -0.11,0.07 -0.11,0.06 -0.12,0.06 -0.11,0.05 -0.12,0.05 -0.12,0.04 -0.13,0.04 -0.13,0.03 -0.13,0.02 -0.13,0.02 -0.13,0.01 -0.14,0 c -1.43,0 -2.64,-1.2 -2.64,-2.64 0,-1.44 1.21,-2.64 2.64,-2.64 1.45,0 2.64,1.2 2.64,2.64 z"
           id="path6018" /><path
           style="fill:#000000;stroke-width:0"
           inkscape:connector-curvature="0"
           d="m 787.04,237.48 0,0.13 -0.01,0.14 -0.02,0.13 -0.02,0.13 -0.03,0.12 -0.04,0.13 -0.04,0.12 -0.05,0.12 -0.05,0.12 -0.06,0.11 -0.06,0.11 -0.07,0.11 -0.07,0.1 -0.08,0.1 -0.09,0.1 -0.08,0.09 -0.09,0.09 -0.1,0.08 -0.1,0.08 -0.1,0.07 -0.11,0.07 -0.11,0.07 -0.12,0.06 -0.11,0.05 -0.12,0.05 -0.12,0.04 -0.13,0.04 -0.13,0.03 -0.13,0.02 -0.13,0.02 -0.13,0.01 -0.14,0 c -1.43,0 -2.64,-1.2 -2.64,-2.64 0,-1.44 1.21,-2.64 2.64,-2.64 1.45,0 2.64,1.2 2.64,2.64 z"
           id="path6020" /><path
           style="fill:#000000;stroke-width:0"
           inkscape:connector-curvature="0"
           d="m 787.04,177.72 0,0.13 -0.01,0.14 -0.02,0.13 -0.02,0.13 -0.03,0.12 -0.04,0.13 -0.04,0.12 -0.05,0.12 -0.05,0.11 -0.06,0.12 -0.06,0.11 -0.07,0.11 -0.07,0.1 -0.08,0.1 -0.09,0.1 -0.08,0.09 -0.09,0.09 -0.1,0.08 -0.1,0.08 -0.1,0.07 -0.11,0.07 -0.11,0.07 -0.12,0.06 -0.11,0.05 -0.12,0.05 -0.12,0.04 -0.13,0.03 -0.13,0.03 -0.13,0.03 -0.13,0.02 -0.13,0.01 -0.14,0 c -1.43,0 -2.64,-1.2 -2.64,-2.64 0,-1.44 1.21,-2.64 2.64,-2.64 1.45,0 2.64,1.2 2.64,2.64 z"
           id="path6022" /><path
           style="fill:#000000;stroke-width:0"
           inkscape:connector-curvature="0"
           d="m 749.2,143.71 0,-0.4 -0.01,-0.39 -0.01,-0.38 -0.03,-0.36 -0.02,-0.36 -0.03,-0.35 -0.04,-0.34 -0.05,-0.33 -0.04,-0.32 -0.06,-0.31 -0.05,-0.3 -0.07,-0.29 -0.06,-0.28 -0.07,-0.27 -0.08,-0.27 -0.08,-0.25 -0.08,-0.25 -0.09,-0.24 -0.09,-0.23 -0.09,-0.22 -0.2,-0.42 -0.21,-0.39 -0.22,-0.36 -0.23,-0.33 -0.24,-0.31 -0.25,-0.27 -0.25,-0.26 -0.26,-0.22 -0.26,-0.21 -0.26,-0.18 -0.27,-0.16 -0.27,-0.15 -0.26,-0.12 -0.26,-0.11 -0.26,-0.08 -0.26,-0.08 -0.24,-0.06 -0.25,-0.04 -0.23,-0.04 -0.23,-0.02 -0.21,-0.01 -0.2,-0.01 c -0.77,0 -2.61,0.06 -3.55,1.14 1.42,0.14 1.53,1.33 1.53,1.64 0,0.88 -0.59,1.64 -1.64,1.64 -1.05,0 -1.67,-0.7 -1.67,-1.7 0,-2.37 1.98,-3.84 5.36,-3.84 4.98,0 9.69,4.7 9.69,12.17 0,8.64 -3.83,11.67 -7.91,11.67 -1.16,0 -3.55,-0.17 -5.55,-2.12 -1.17,-1.16 -2.57,-2.52 -2.57,-5.66 0,-4.42 3.53,-7.69 7.6,-7.69 l 0.18,0.97 c -1.36,0 -2.66,0.45 -3.63,2.06 -0.79,1.28 -0.79,2.75 -0.79,4.66 0,2.03 0,3.42 1,4.81 0.84,1.22 1.98,1.96 3.79,1.96 1.78,0 2.83,-1.11 3.39,-2.02 0.94,-1.47 1.03,-3.91 1.03,-5.13 0,-4.53 -2.61,-6.34 -4.79,-6.34 h 0 l -0.18,-0.97 c 2.79,0 4.29,1.85 5.08,3.41 z"
           id="path6024" /><path
           style="fill:#000000;stroke-width:0"
           inkscape:connector-curvature="0"
           d="m 772.42,144.43 0,0.71 -0.02,0.68 -0.03,0.66 -0.04,0.64 -0.06,0.62 -0.08,0.59 -0.09,0.58 -0.11,0.56 -0.12,0.55 -0.15,0.53 -0.17,0.51 -0.19,0.5 -0.21,0.49 -0.24,0.48 -0.26,0.47 -0.14,0.23 -0.15,0.23 c -1.08,1.61 -3.24,3 -6.03,3 v -0.98 c 1.89,0 3.7,-1.14 4.33,-3.18 0.56,-1.87 0.59,-4.39 0.59,-7.42 0,-2.58 0,-5.15 -0.45,-7.34 -0.71,-3.17 -3.07,-3.94 -4.47,-3.94 h 0 c -1.6,0 -3.72,0.94 -4.42,3.8 -0.49,2.05 -0.49,4.9 -0.49,7.48 0,2.55 0,5.21 0.52,7.11 0.73,2.75 2.97,3.49 4.39,3.49 v 0.98 c -8.08,0 -8.08,-9.51 -8.08,-12.03 0,-2.5 0,-11.81 8.08,-11.81 8.09,0 8.09,9.31 8.09,11.81 z"
           id="path6026" /><path
           style="fill:#000000;stroke-width:0"
           inkscape:connector-curvature="0"
           d="m 809.02,149.95 0,0.01 0,0.02 0,0.01 -0.01,0.02 0,0.02 0,0.02 -0.01,0.02 0,0.02 -0.01,0.02 -0.01,0.02 -0.01,0.02 -0.01,0.02 -0.01,0.02 -0.01,0.02 -0.01,0.02 -0.02,0.02 -0.02,0.02 -0.01,0.02 -0.02,0.02 -0.02,0.02 -0.02,0.01 -0.03,0.02 -0.02,0.02 -0.03,0.01 -0.02,0.01 -0.03,0.01 -0.02,0.01 -0.02,0 -0.01,0.01 -0.02,0 -0.02,0 -0.01,0.01 -0.02,0 -0.02,0 -0.02,0 -0.02,0 -0.02,0 -0.02,0.01 c -0.25,0 -0.31,-0.05 -0.9,-0.75 l -2.39,-2.85 c -1.3,2.35 -3.9,3.6 -7.13,3.6 -6.33,0 -12.3,-5.74 -12.3,-11.77 0,-4.03 2.65,-6.33 5.18,-7.06 l 5.32,-1.41 c 1.85,-0.44 4.6,-1.19 4.6,-5.28 0,-4.49 -4.1,-9.16 -8.97,-9.16 -3.19,0 -8.72,1.1 -8.72,7.27 0,1.2 0.25,2.39 0.3,2.69 0.04,0.2 0.09,0.25 0.09,0.36 0,0.5 -0.34,0.54 -0.59,0.54 -0.25,0 -0.35,-0.04 -0.5,-0.2 -0.21,-0.2 -2.99,-11.56 -2.99,-11.7 0,-0.3 0.25,-0.5 0.55,-0.5 0.25,0 0.3,0.04 0.89,0.75 l 2.45,2.83 c 2.14,-2.9 5.52,-3.58 8.41,-3.58 6.78,0 12.66,6.62 12.66,12.79 0,3.44 -1.69,5.14 -2.44,5.83 -1.14,1.16 -1.89,1.35 -6.33,2.5 -1.09,0.3 -2.89,0.8 -3.34,0.89 -1.35,0.46 -3.04,1.89 -3.04,4.53 0,4.05 3.99,8.28 8.72,8.28 4.15,0 7.18,-2.14 7.18,-7.73 0,-1.59 -0.21,-2.48 -0.21,-2.78 0,-0.05 0,-0.5 0.61,-0.5 0.5,0 0.55,0.16 0.74,1 z"
           id="path6028" /><path
           style="fill:#000000;stroke-width:0"
           inkscape:connector-curvature="0"
           d="m 814.75,118.26 -0.02,-0.07 -0.01,-0.08 -0.02,-0.07 -0.01,-0.08 -0.04,-0.16 -0.04,-0.16 -0.03,-0.16 -0.04,-0.16 -0.04,-0.16 -0.04,-0.16 -0.01,-0.08 -0.02,-0.07 -0.02,-0.07 -0.01,-0.07 -0.02,-0.07 -0.01,-0.07 -0.01,-0.06 -0.01,-0.06 -0.01,-0.05 -0.01,-0.06 -0.01,-0.05 -0.01,-0.04 -0.01,-0.04 0,-0.04 0,-0.03 0,-0.02 c 0,-0.89 0.7,-1.35 1.43,-1.35 0.61,0 1.5,0.39 1.85,1.39 0.11,0.21 1.8,6.99 2,7.88 0.39,1.64 1.3,5.12 1.59,6.48 0.21,0.64 1.6,2.99 2.78,4.08 0.41,0.35 1.85,1.64 4,1.64 1.28,0 2.03,-0.59 2.08,-0.59 -1.48,-0.25 -2.58,-1.45 -2.58,-2.74 0,-0.79 0.55,-1.75 1.89,-1.75 1.35,0 2.74,1.14 2.74,2.94 0,1.75 -1.6,3.24 -4.13,3.24 -3.25,0 -5.43,-2.44 -6.39,-3.83 -0.39,2.23 -2.18,3.83 -4.53,3.83 -2.28,0 -3.23,-1.94 -3.69,-2.83 -0.89,-1.71 -1.54,-4.69 -1.54,-4.85 0,-0.5 0.5,-0.5 0.61,-0.5 0.5,0 0.54,0.07 0.84,1.16 0.84,3.53 1.84,5.92 3.64,5.92 0.84,0 1.55,-0.39 1.55,-2.28 0,-1.05 -0.16,-1.61 -0.8,-4.19 z"
           id="path6030" /><polygon
           style="fill:#000000;stroke-width:0"
           points="888.5,366.27 888.5,455.9 871.9,455.9 871.9,452.46 885.06,452.46 885.06,366.27 "
           id="polygon6032" /><polygon
           style="fill:#000000;stroke-width:0"
           points="885.06,366.41 885.06,336.42 888.5,336.42 888.5,366.41 "
           id="polygon6034" /><polygon
           style="fill:#000000;stroke-width:0"
           points="885.06,336.53 885.06,306.54 888.5,306.54 888.5,336.53 "
           id="polygon6036" /><polygon
           style="fill:#000000;stroke-width:0"
           points="885.06,306.65 885.06,276.66 888.5,276.66 888.5,306.65 "
           id="polygon6038" /><polygon
           style="fill:#000000;stroke-width:0"
           points="885.06,276.77 885.06,246.78 888.5,246.78 888.5,276.77 "
           id="polygon6040" /><polygon
           style="fill:#000000;stroke-width:0"
           points="885.06,246.77 885.06,216.78 888.5,216.78 888.5,246.77 "
           id="polygon6042" /><polygon
           style="fill:#000000;stroke-width:0"
           points="885.06,216.89 885.06,186.9 888.5,186.9 888.5,216.89 "
           id="polygon6044" /><polygon
           style="fill:#000000;stroke-width:0"
           points="871.9,100.84 871.9,97.398 888.5,97.398 888.5,187.04 885.06,187.04 885.06,100.84 "
           id="polygon6046" /></g>    </g>
    <path
       sodipodi:type="arc"
       style="fill:#000000;fill-opacity:0;stroke:#000000;stroke-width:2;stroke-miterlimit:4.5;stroke-opacity:1;stroke-dasharray:none"
       id="path6173"
       sodipodi:cx="24.285715"
       sodipodi:cy="355.57648"
       sodipodi:rx="7.8571429"
       sodipodi:ry="14.642858"
       d="m 24.943184,370.16798 c -4.324161,0.67671 -8.123946,-5.30756 -8.487056,-13.36622 -0.36311,-8.05866 2.847957,-15.14008 7.172118,-15.81679 0.601935,-0.0942 1.207691,-0.0587 1.805264,0.10573"
       transform="matrix(0,-2.9502054,-2.9502054,0,1188.8545,599.51666)"
       sodipodi:start="1.4870205"
       sodipodi:end="4.8589966"
       sodipodi:open="true" />
    <path
       transform="matrix(0,-2.9502054,-2.9502054,0,1186.8545,457.90682)"
       d="m 32.142858,355.57648 c 0,8.08702 -3.517763,14.64285 -7.857143,14.64285 -4.33938,0 -7.857143,-6.55583 -7.857143,-14.64285 0,-8.08703 3.517763,-14.64286 7.857143,-14.64286 4.33938,0 7.857143,6.55583 7.857143,14.64286 z"
       sodipodi:ry="14.642858"
       sodipodi:rx="7.8571429"
       sodipodi:cy="355.57648"
       sodipodi:cx="24.285715"
       id="path6175"
       style="fill:#000000;fill-opacity:0;stroke:#000000;stroke-width:2;stroke-miterlimit:4.5;stroke-opacity:1;stroke-dasharray:none"
       sodipodi:type="arc" />
    <path
       style="fill:#000000;fill-opacity:0;stroke:#000000;stroke-width:6.07420778;stroke-linecap:butt;stroke-linejoin:miter;stroke-miterlimit:4;stroke-opacity:1;stroke-dasharray:none"
       d="m 96.631252,529.97614 -2.10729,-144.4918"
       id="path6177"
       inkscape:connector-curvature="0" />
    <path
       inkscape:connector-curvature="0"
       id="path6179"
       d="M 183.03011,528.08342 180.92282,391.7418"
       style="fill:#000000;fill-opacity:0;stroke:#000000;stroke-width:5.90041065;stroke-linecap:butt;stroke-linejoin:miter;stroke-miterlimit:4;stroke-opacity:1;stroke-dasharray:none" />
    <path
       sodipodi:type="arc"
       style="fill:#000000;fill-opacity:0;stroke:#000000;stroke-width:2;stroke-miterlimit:4.5;stroke-opacity:1;stroke-dasharray:none"
       id="path6189"
       sodipodi:cx="24.285715"
       sodipodi:cy="355.57648"
       sodipodi:rx="7.8571429"
       sodipodi:ry="14.642858"
       d="m 24.943184,370.16798 c -4.324161,0.67671 -8.123946,-5.30756 -8.487056,-13.36622 -0.36311,-8.05866 2.847957,-15.14008 7.172118,-15.81679 0.601935,-0.0942 1.207691,-0.0587 1.805264,0.10573"
       transform="matrix(0,-2.9502054,-4.992838,0,1885.2566,861.51666)"
       sodipodi:start="1.4870205"
       sodipodi:end="4.8589966"
       sodipodi:open="true" />
    <path
       transform="matrix(0,-2.9502054,-4.9755745,0,1877.3709,719.90682)"
       d="m 32.142858,355.57648 c 0,8.08702 -3.517763,14.64285 -7.857143,14.64285 -4.33938,0 -7.857143,-6.55583 -7.857143,-14.64285 0,-8.08703 3.517763,-14.64286 7.857143,-14.64286 4.33938,0 7.857143,6.55583 7.857143,14.64286 z"
       sodipodi:ry="14.642858"
       sodipodi:rx="7.8571429"
       sodipodi:cy="355.57648"
       sodipodi:cx="24.285715"
       id="path6191"
       style="fill:#808080;fill-opacity:1;stroke:#000000;stroke-width:2;stroke-miterlimit:4.50000000000000000;stroke-opacity:1;stroke-dasharray:none"
       sodipodi:type="arc" />
    <path
       style="fill:#000000;fill-opacity:0;stroke:#000000;stroke-width:6.07420778;stroke-linecap:butt;stroke-linejoin:miter;stroke-miterlimit:4;stroke-opacity:1;stroke-dasharray:none"
       d="m 36.631252,791.97614 -2.10729,-144.4918"
       id="path6193"
       inkscape:connector-curvature="0" />
    <path
       inkscape:connector-curvature="0"
       id="path6195"
       d="M 183.03011,790.08342 180.92282,653.7418"
       style="fill:#000000;fill-opacity:0;stroke:#000000;stroke-width:5.90041065;stroke-linecap:butt;stroke-linejoin:miter;stroke-miterlimit:4;stroke-opacity:1;stroke-dasharray:none" />
    <path
       sodipodi:type="arc"
       style="fill:#000000;fill-opacity:0;stroke:#000000;stroke-width:2;stroke-miterlimit:4.5;stroke-opacity:1;stroke-dasharray:none"
       id="path6197"
       sodipodi:cx="24.285715"
       sodipodi:cy="355.57648"
       sodipodi:rx="7.8571429"
       sodipodi:ry="14.642858"
       d="m 24.943184,370.16798 c -4.324161,0.67671 -8.123946,-5.30756 -8.487056,-13.36622 -0.36311,-8.05866 2.847957,-15.14008 7.172118,-15.81679 0.601935,-0.0942 1.207691,-0.0587 1.805264,0.10573"
       transform="matrix(0,-2.9502054,-2.2670635,0,955.94836,1073.5166)"
       sodipodi:start="1.4870205"
       sodipodi:end="4.8589966"
       sodipodi:open="true" />
    <path
       transform="matrix(0,-2.9502054,-2.2663732,0,953.71306,999.90682)"
       d="m 32.142858,355.57648 c 0,8.08702 -3.517763,14.64285 -7.857143,14.64285 -4.33938,0 -7.857143,-6.55583 -7.857143,-14.64285 0,-8.08703 3.517763,-14.64286 7.857143,-14.64286 4.33938,0 7.857143,6.55583 7.857143,14.64286 z"
       sodipodi:ry="14.642858"
       sodipodi:rx="7.8571429"
       sodipodi:cy="355.57648"
       sodipodi:cx="24.285715"
       id="path6199"
       style="fill:#cccccc;fill-opacity:1;stroke:#000000;stroke-width:2;stroke-miterlimit:4.50000000000000000;stroke-opacity:1;stroke-dasharray:none"
       sodipodi:type="arc" />
    <path
       style="fill:#000000;fill-opacity:0;stroke:#000000;stroke-width:4.33903408;stroke-linecap:butt;stroke-linejoin:miter;stroke-miterlimit:4;stroke-opacity:1;stroke-dasharray:none"
       d="m 116.63125,1001.2153 -2.10729,-73.73096"
       id="path6201"
       inkscape:connector-curvature="0" />
    <path
       inkscape:connector-curvature="0"
       id="path6203"
       d="M 183.03011,998.28234 180.92282,933.7418"
       style="fill:#000000;fill-opacity:0;stroke:#000000;stroke-width:4.05960989;stroke-linecap:butt;stroke-linejoin:miter;stroke-miterlimit:4;stroke-opacity:1;stroke-dasharray:none" />
    <g
       transform="matrix(6.1360681,0,0,10.910166,-1680.6925,-2419.0745)"
       id="g7317">
      <g
         style="font-style:normal;font-variant:normal;font-weight:normal;font-stretch:normal;letter-spacing:normal;word-spacing:normal;text-anchor:start;fill:none;stroke:#000000;stroke-linecap:butt;stroke-linejoin:miter;stroke-miterlimit:10.43299961;stroke-opacity:1;stroke-dasharray:none;stroke-dashoffset:0"
         id="g7319"
         transform="matrix(1.0928571,0,0,-1.0928571,-191.25,742.5)"
         xml:space="preserve"
         stroke-miterlimit="10.433"
         font-style="normal"
         font-variant="normal"
         font-weight="normal"
         font-stretch="normal"
         font-size-adjust="none"
         letter-spacing="normal"
         word-spacing="normal"><path
           style="fill:#000000;stroke-width:0"
           inkscape:connector-curvature="0"
           d="m 466.29,400.37 -0.01,-0.19 -0.01,-0.2 -0.02,-0.2 -0.03,-0.21 -0.04,-0.21 -0.05,-0.21 -0.06,-0.22 -0.07,-0.22 -0.09,-0.22 -0.09,-0.22 -0.11,-0.22 -0.12,-0.22 -0.14,-0.21 -0.15,-0.22 -0.16,-0.21 -0.18,-0.21 -0.2,-0.2 -0.21,-0.19 -0.23,-0.19 -0.25,-0.19 -0.26,-0.17 -0.29,-0.17 -0.3,-0.15 -0.32,-0.15 -0.35,-0.14 -0.36,-0.12 -0.38,-0.12 -0.41,-0.1 -0.21,-0.04 -0.22,-0.04 -0.22,-0.04 -0.23,-0.03 -0.23,-0.03 -0.24,-0.03 -0.25,-0.02 -0.25,-0.02 c -0.25,-0.05 -0.44,-0.25 -0.44,-0.55 0,-0.54 0.55,-0.54 0.99,-0.54 4.84,0 9.47,2.43 9.51,6.21 v 11.36 c 0,1.96 0,3.55 2,5.19 1.75,1.45 3.64,1.55 4.74,1.6 0.25,0.04 0.45,0.25 0.45,0.54 0,0.5 -0.31,0.5 -0.8,0.55 -3.29,0.2 -5.68,2 -6.23,4.44 -0.16,0.54 -0.16,0.64 -0.16,2.43 v 9.88 c 0,2.08 0,3.69 -2.39,5.58 -1.98,1.54 -5.42,2.03 -7.12,2.03 -0.44,0 -0.99,0 -0.99,-0.55 0,-0.5 0.3,-0.5 0.8,-0.55 3.13,-0.18 5.58,-1.79 6.22,-4.32 0.16,-0.46 0.16,-0.55 0.16,-2.35 v -10.47 c 0,-2.28 0.39,-3.12 1.98,-4.73 1.05,-1.03 2.5,-1.53 3.89,-1.94 -4.08,-1.14 -5.87,-3.44 -5.87,-6.33 z"
           id="path7321" /></g>    </g>
    <g
       id="g7523"
       transform="matrix(1.2257718,0,0,1.2257718,137.89504,325.55996)">
      <g
         word-spacing="normal"
         letter-spacing="normal"
         font-size-adjust="none"
         font-stretch="normal"
         font-weight="normal"
         font-variant="normal"
         font-style="normal"
         stroke-miterlimit="10.433"
         xml:space="preserve"
         transform="matrix(1.0928571,0,0,-1.0928571,-191.25,742.5)"
         id="g7525"
         style="font-style:normal;font-variant:normal;font-weight:normal;font-stretch:normal;letter-spacing:normal;word-spacing:normal;text-anchor:start;fill:none;stroke:#000000;stroke-linecap:butt;stroke-linejoin:miter;stroke-miterlimit:10.43299961;stroke-opacity:1;stroke-dasharray:none;stroke-dashoffset:0"><path
           id="path7527"
           d="m 475.89,417.65 h 13.91 c 0.69,0 1.64,0 1.64,1 0,1 -0.95,1 -1.64,1 h -13.91 v 13.96 c 0,0.68 0,1.64 -1,1.64 -0.98,0 -0.98,-0.96 -0.98,-1.64 v -13.96 h -13.95 c -0.71,0 -1.64,0 -1.64,-1 0,-1 0.93,-1 1.64,-1 h 13.95 v -13.94 c 0,-0.7 0,-1.65 0.98,-1.65 1,0 1,0.95 1,1.65 z"
           inkscape:connector-curvature="0"
           style="fill:#000000;stroke-width:0" /></g>    </g>
    <g
       id="g7735"
       transform="matrix(1.25453,0,0,1.25453,360.83831,319.83621)">
      <g
         id="g7737"
         transform="matrix(1.0928571,0,0,-1.0928571,-191.25,742.5)"
         xml:space="preserve"
         stroke-miterlimit="10.433"
         font-style="normal"
         font-variant="normal"
         font-weight="normal"
         font-stretch="normal"
         font-size-adjust="none"
         letter-spacing="normal"
         word-spacing="normal"
         style="font-style:normal;font-variant:normal;font-weight:normal;font-stretch:normal;letter-spacing:normal;word-spacing:normal;text-anchor:start;fill:none;stroke:#000000;stroke-linecap:butt;stroke-linejoin:miter;stroke-miterlimit:10.43299961;stroke-opacity:1;stroke-dasharray:none;stroke-dashoffset:0"><path
           d="m 489.75,422.5 0.14,0 0.15,0 0.14,0 0.07,0.01 0.08,0 0.07,0.01 0.07,0.01 0.07,0.01 0.07,0.01 0.07,0.01 0.06,0.02 0.07,0.02 0.06,0.02 0.06,0.02 0.06,0.03 0.06,0.03 0.05,0.04 0.05,0.03 0.05,0.05 0.04,0.04 0.04,0.05 0.02,0.03 0.02,0.03 0.01,0.02 0.02,0.03 0.01,0.03 0.02,0.04 0.01,0.03 0.01,0.04 0.01,0.03 0.01,0.04 0,0.04 0.01,0.04 0,0.04 0.01,0.04 0,0.04 0,0.05 c 0,1 -0.95,1 -1.64,1 h -29.84 c -0.71,0 -1.64,0 -1.64,-1 0,-0.98 0.93,-0.98 1.68,-0.98 z"
           id="path7739"
           inkscape:connector-curvature="0"
           style="fill:#000000;stroke-width:0" /><path
           d="m 489.8,412.82 0.07,0 0.06,0 0.14,0.01 0.14,0 0.07,0 0.07,0.01 0.07,0.01 0.07,0 0.06,0.01 0.07,0.02 0.07,0.01 0.06,0.02 0.07,0.02 0.06,0.02 0.06,0.02 0.06,0.03 0.05,0.03 0.05,0.04 0.05,0.04 0.05,0.04 0.04,0.05 0.02,0.02 0.02,0.03 0.02,0.02 0.02,0.03 0.01,0.03 0.02,0.03 0.01,0.03 0.02,0.03 0.01,0.04 0.01,0.03 0.01,0.04 0.01,0.04 0,0.04 0.01,0.04 0,0.04 0.01,0.04 0,0.05 0,0.04 c 0,1 -0.95,1 -1.69,1 H 460 c -0.75,0 -1.68,0 -1.68,-1 0,-1 0.93,-1 1.64,-1 z"
           id="path7741"
           inkscape:connector-curvature="0"
           style="fill:#000000;stroke-width:0" /></g>    </g>
    <path
       sodipodi:type="arc"
       style="fill:#000000;fill-opacity:0;stroke:#000000;stroke-width:2;stroke-miterlimit:4.5;stroke-opacity:1;stroke-dasharray:none"
       id="path8075"
       sodipodi:cx="24.285715"
       sodipodi:cy="355.57648"
       sodipodi:rx="7.8571429"
       sodipodi:ry="14.642858"
       d="m 24.943184,370.16798 c -4.324161,0.67671 -8.123946,-5.30756 -8.487056,-13.36622 -0.36311,-8.05866 2.847957,-15.14008 7.172118,-15.81679 0.922514,-0.14436 1.85146,0.0162 2.743982,0.4744"
       transform="matrix(0,-2.9502054,-2.9502054,0,1946.6644,832.11466)"
       sodipodi:start="1.4870205"
       sodipodi:end="4.9811697"
       sodipodi:open="true" />
    <path
       transform="matrix(0,-2.9502054,-2.9502054,0,1944.6644,690.50482)"
       d="m 32.142858,355.57648 c 0,8.08702 -3.517763,14.64285 -7.857143,14.64285 -4.33938,0 -7.857143,-6.55583 -7.857143,-14.64285 0,-8.08703 3.517763,-14.64286 7.857143,-14.64286 4.33938,0 7.857143,6.55583 7.857143,14.64286 z"
       sodipodi:ry="14.642858"
       sodipodi:rx="7.8571429"
       sodipodi:cy="355.57648"
       sodipodi:cx="24.285715"
       id="path8077"
       style="fill:#000000;fill-opacity:0;stroke:#000000;stroke-width:2;stroke-miterlimit:4.5;stroke-opacity:1;stroke-dasharray:none"
       sodipodi:type="arc" />
    <path
       style="fill:#000000;fill-opacity:0;stroke:#000000;stroke-width:6.07420778;stroke-linecap:butt;stroke-linejoin:miter;stroke-miterlimit:4;stroke-opacity:1;stroke-dasharray:none"
       d="m 854.44115,762.57414 -2.10729,-144.4918"
       id="path8079"
       inkscape:connector-curvature="0" />
    <path
       inkscape:connector-curvature="0"
       id="path8081"
       d="M 940.84001,760.68142 938.73272,624.3398"
       style="fill:#000000;fill-opacity:0;stroke:#000000;stroke-width:5.90041065;stroke-linecap:butt;stroke-linejoin:miter;stroke-miterlimit:4;stroke-opacity:1;stroke-dasharray:none" />
    <path
       transform="matrix(1.1416105,0,0,2.1250124,794.44945,-199.04329)"
       d="m 63.571427,385.21933 c 0,1.18347 -0.95939,2.14286 -2.142857,2.14286 -1.183467,0 -2.142857,-0.95939 -2.142857,-2.14286 0,-1.18347 0.95939,-2.14286 2.142857,-2.14286 1.183467,0 2.142857,0.95939 2.142857,2.14286 z"
       sodipodi:ry="2.1428571"
       sodipodi:rx="2.1428571"
       sodipodi:cy="385.21933"
       sodipodi:cx="61.42857"
       id="path8083"
       style="fill:#000000;fill-opacity:0;stroke:#000000;stroke-width:3.78828406;stroke-miterlimit:4;stroke-opacity:1;stroke-dasharray:none"
       sodipodi:type="arc" />
    <path
       sodipodi:type="arc"
       style="fill:#000000;fill-opacity:0;stroke:#000000;stroke-width:3.78828406;stroke-miterlimit:4;stroke-opacity:1;stroke-dasharray:none"
       id="path8085"
       sodipodi:cx="61.42857"
       sodipodi:cy="385.21933"
       sodipodi:rx="2.1428571"
       sodipodi:ry="2.1428571"
       d="m 63.571427,385.21933 c 0,1.18347 -0.95939,2.14286 -2.142857,2.14286 -1.183467,0 -2.142857,-0.95939 -2.142857,-2.14286 0,-1.18347 0.95939,-2.14286 2.142857,-2.14286 1.183467,0 2.142857,0.95939 2.142857,2.14286 z"
       transform="matrix(1.1416105,0,0,2.1250124,856.04084,-199.04329)" />
    <path
       transform="matrix(1.1416105,0,0,2.1250124,825.24515,-149.77018)"
       d="m 63.571427,385.21933 c 0,1.18347 -0.95939,2.14286 -2.142857,2.14286 -1.183467,0 -2.142857,-0.95939 -2.142857,-2.14286 0,-1.18347 0.95939,-2.14286 2.142857,-2.14286 1.183467,0 2.142857,0.95939 2.142857,2.14286 z"
       sodipodi:ry="2.1428571"
       sodipodi:rx="2.1428571"
       sodipodi:cy="385.21933"
       sodipodi:cx="61.42857"
       id="path8087"
       style="fill:#000000;fill-opacity:0;stroke:#000000;stroke-width:3.78828406;stroke-miterlimit:4;stroke-opacity:1;stroke-dasharray:none"
       sodipodi:type="arc" />
    <path
       sodipodi:type="arc"
       style="fill:#000000;fill-opacity:0;stroke:#000000;stroke-width:3.78828406;stroke-miterlimit:4;stroke-opacity:1;stroke-dasharray:none"
       id="path8089"
       sodipodi:cx="61.42857"
       sodipodi:cy="385.21933"
       sodipodi:rx="2.1428571"
       sodipodi:ry="2.1428571"
       d="m 63.571427,385.21933 c 0,1.18347 -0.95939,2.14286 -2.142857,2.14286 -1.183467,0 -2.142857,-0.95939 -2.142857,-2.14286 0,-1.18347 0.95939,-2.14286 2.142857,-2.14286 1.183467,0 2.142857,0.95939 2.142857,2.14286 z"
       transform="matrix(1.1416105,0,0,2.1250124,812.92687,-100.49706)" />
    <path
       transform="matrix(1.1416105,0,0,2.1250124,797.56029,-158.91508)"
       d="m 63.571427,385.21933 c 0,1.18347 -0.95939,2.14286 -2.142857,2.14286 -1.183467,0 -2.142857,-0.95939 -2.142857,-2.14286 0,-1.18347 0.95939,-2.14286 2.142857,-2.14286 1.183467,0 2.142857,0.95939 2.142857,2.14286 z"
       sodipodi:ry="2.1428571"
       sodipodi:rx="2.1428571"
       sodipodi:cy="385.21933"
       sodipodi:cx="61.42857"
       id="path8091"
       style="fill:#000000;fill-opacity:0;stroke:#000000;stroke-width:3.78828406;stroke-miterlimit:4;stroke-opacity:1;stroke-dasharray:none"
       sodipodi:type="arc" />
    <path
       sodipodi:type="arc"
       style="fill:#000000;fill-opacity:0;stroke:#000000;stroke-width:3.78828406;stroke-miterlimit:4;stroke-opacity:1;stroke-dasharray:none"
       id="path8093"
       sodipodi:cx="61.42857"
       sodipodi:cy="385.21933"
       sodipodi:rx="2.1428571"
       sodipodi:ry="2.1428571"
       d="m 63.571427,385.21933 c 0,1.18347 -0.95939,2.14286 -2.142857,2.14286 -1.183467,0 -2.142857,-0.95939 -2.142857,-2.14286 0,-1.18347 0.95939,-2.14286 2.142857,-2.14286 1.183467,0 2.142857,0.95939 2.142857,2.14286 z"
       transform="matrix(1.1416105,0,0,2.1250124,856.04084,-168.24759)" />
    <path
       transform="matrix(1.1416105,0,0,2.1250124,856.04084,-137.4519)"
       d="m 63.571427,385.21933 c 0,1.18347 -0.95939,2.14286 -2.142857,2.14286 -1.183467,0 -2.142857,-0.95939 -2.142857,-2.14286 0,-1.18347 0.95939,-2.14286 2.142857,-2.14286 1.183467,0 2.142857,0.95939 2.142857,2.14286 z"
       sodipodi:ry="2.1428571"
       sodipodi:rx="2.1428571"
       sodipodi:cy="385.21933"
       sodipodi:cx="61.42857"
       id="path8095"
       style="fill:#000000;fill-opacity:0;stroke:#000000;stroke-width:3.78828406;stroke-miterlimit:4;stroke-opacity:1;stroke-dasharray:none"
       sodipodi:type="arc" />
    <path
       sodipodi:type="arc"
       style="fill:#000000;fill-opacity:0;stroke:#000000;stroke-width:3.78828406;stroke-miterlimit:4;stroke-opacity:1;stroke-dasharray:none"
       id="path8097"
       sodipodi:cx="61.42857"
       sodipodi:cy="385.21933"
       sodipodi:rx="2.1428571"
       sodipodi:ry="2.1428571"
       d="m 63.571427,385.21933 c 0,1.18347 -0.95939,2.14286 -2.142857,2.14286 -1.183467,0 -2.142857,-0.95939 -2.142857,-2.14286 0,-1.18347 0.95939,-2.14286 2.142857,-2.14286 1.183467,0 2.142857,0.95939 2.142857,2.14286 z"
       transform="matrix(1.1416105,0,0,2.1250124,794.44945,-137.4519)" />
    <path
       transform="matrix(1.1416105,0,0,2.1250124,812.92687,-69.70136)"
       d="m 63.571427,385.21933 c 0,1.18347 -0.95939,2.14286 -2.142857,2.14286 -1.183467,0 -2.142857,-0.95939 -2.142857,-2.14286 0,-1.18347 0.95939,-2.14286 2.142857,-2.14286 1.183467,0 2.142857,0.95939 2.142857,2.14286 z"
       sodipodi:ry="2.1428571"
       sodipodi:rx="2.1428571"
       sodipodi:cy="385.21933"
       sodipodi:cx="61.42857"
       id="path8099"
       style="fill:#000000;fill-opacity:0;stroke:#000000;stroke-width:3.78828406;stroke-miterlimit:4;stroke-opacity:1;stroke-dasharray:none"
       sodipodi:type="arc" />
    <path
       sodipodi:type="arc"
       style="fill:#000000;fill-opacity:0;stroke:#000000;stroke-width:3.78828406;stroke-miterlimit:4;stroke-opacity:1;stroke-dasharray:none"
       id="path8101"
       sodipodi:cx="61.42857"
       sodipodi:cy="385.21933"
       sodipodi:rx="2.1428571"
       sodipodi:ry="2.1428571"
       d="m 63.571427,385.21933 c 0,1.18347 -0.95939,2.14286 -2.142857,2.14286 -1.183467,0 -2.142857,-0.95939 -2.142857,-2.14286 0,-1.18347 0.95939,-2.14286 2.142857,-2.14286 1.183467,0 2.142857,0.95939 2.142857,2.14286 z"
       transform="matrix(1.1416105,0,0,2.1250124,825.24515,-118.97448)" />
    <path
       transform="matrix(1.1416105,0,0,2.1250124,856.04084,-88.17878)"
       d="m 63.571427,385.21933 c 0,1.18347 -0.95939,2.14286 -2.142857,2.14286 -1.183467,0 -2.142857,-0.95939 -2.142857,-2.14286 0,-1.18347 0.95939,-2.14286 2.142857,-2.14286 1.183467,0 2.142857,0.95939 2.142857,2.14286 z"
       sodipodi:ry="2.1428571"
       sodipodi:rx="2.1428571"
       sodipodi:cy="385.21933"
       sodipodi:cx="61.42857"
       id="path8103"
       style="fill:#000000;fill-opacity:0;stroke:#000000;stroke-width:3.78828406;stroke-miterlimit:4;stroke-opacity:1;stroke-dasharray:none"
       sodipodi:type="arc" />
    <path
       sodipodi:type="arc"
       style="fill:#000000;fill-opacity:0;stroke:#000000;stroke-width:3.78828406;stroke-miterlimit:4;stroke-opacity:1;stroke-dasharray:none"
       id="path8105"
       sodipodi:cx="61.42857"
       sodipodi:cy="385.21933"
       sodipodi:rx="2.1428571"
       sodipodi:ry="2.1428571"
       d="m 63.571427,385.21933 c 0,1.18347 -0.95939,2.14286 -2.142857,2.14286 -1.183467,0 -2.142857,-0.95939 -2.142857,-2.14286 0,-1.18347 0.95939,-2.14286 2.142857,-2.14286 1.183467,0 2.142857,0.95939 2.142857,2.14286 z"
       transform="matrix(1.1416105,0,0,2.1250124,794.44945,-88.17878)" />
    <path
       transform="matrix(1.1416105,0,0,2.1250124,794.44945,-88.17878)"
       d="m 63.571427,385.21933 c 0,1.18347 -0.95939,2.14286 -2.142857,2.14286 -1.183467,0 -2.142857,-0.95939 -2.142857,-2.14286 0,-1.18347 0.95939,-2.14286 2.142857,-2.14286 1.183467,0 2.142857,0.95939 2.142857,2.14286 z"
       sodipodi:ry="2.1428571"
       sodipodi:rx="2.1428571"
       sodipodi:cy="385.21933"
       sodipodi:cx="61.42857"
       id="path8107"
       style="fill:#000000;fill-opacity:0;stroke:#000000;stroke-width:3.78828406;stroke-miterlimit:4;stroke-opacity:1;stroke-dasharray:none"
       sodipodi:type="arc" />
    <path
       sodipodi:type="arc"
       style="fill:#000000;fill-opacity:0;stroke:#000000;stroke-width:3.78828406;stroke-miterlimit:4;stroke-opacity:1;stroke-dasharray:none"
       id="path8109"
       sodipodi:cx="61.42857"
       sodipodi:cy="385.21933"
       sodipodi:rx="2.1428571"
       sodipodi:ry="2.1428571"
       d="m 63.571427,385.21933 c 0,1.18347 -0.95939,2.14286 -2.142857,2.14286 -1.183467,0 -2.142857,-0.95939 -2.142857,-2.14286 0,-1.18347 0.95939,-2.14286 2.142857,-2.14286 1.183467,0 2.142857,0.95939 2.142857,2.14286 z"
       transform="matrix(1.1416105,0,0,2.1250124,831.40429,-100.49706)" />
    <path
       transform="matrix(1.1416105,0,0,2.1250124,819.08601,-51.223945)"
       d="m 63.571427,385.21933 c 0,1.18347 -0.95939,2.14286 -2.142857,2.14286 -1.183467,0 -2.142857,-0.95939 -2.142857,-2.14286 0,-1.18347 0.95939,-2.14286 2.142857,-2.14286 1.183467,0 2.142857,0.95939 2.142857,2.14286 z"
       sodipodi:ry="2.1428571"
       sodipodi:rx="2.1428571"
       sodipodi:cy="385.21933"
       sodipodi:cx="61.42857"
       id="path8111"
       style="fill:#000000;fill-opacity:0;stroke:#000000;stroke-width:3.78828406;stroke-miterlimit:4;stroke-opacity:1;stroke-dasharray:none"
       sodipodi:type="arc" />
    <path
       sodipodi:type="arc"
       style="fill:#000000;fill-opacity:0;stroke:#000000;stroke-width:3.78828406;stroke-miterlimit:4;stroke-opacity:1;stroke-dasharray:none"
       id="path8113"
       sodipodi:cx="61.42857"
       sodipodi:cy="385.21933"
       sodipodi:rx="2.1428571"
       sodipodi:ry="2.1428571"
       d="m 63.571427,385.21933 c 0,1.18347 -0.95939,2.14286 -2.142857,2.14286 -1.183467,0 -2.142857,-0.95939 -2.142857,-2.14286 0,-1.18347 0.95939,-2.14286 2.142857,-2.14286 1.183467,0 2.142857,0.95939 2.142857,2.14286 z"
       transform="matrix(1.1416105,0,0,2.1250124,812.92687,-174.40673)" />
    <path
       transform="matrix(1.1416105,0,0,2.1250124,862.19998,-125.13362)"
       d="m 63.571427,385.21933 c 0,1.18347 -0.95939,2.14286 -2.142857,2.14286 -1.183467,0 -2.142857,-0.95939 -2.142857,-2.14286 0,-1.18347 0.95939,-2.14286 2.142857,-2.14286 1.183467,0 2.142857,0.95939 2.142857,2.14286 z"
       sodipodi:ry="2.1428571"
       sodipodi:rx="2.1428571"
       sodipodi:cy="385.21933"
       sodipodi:cx="61.42857"
       id="path8115"
       style="fill:#000000;fill-opacity:0;stroke:#000000;stroke-width:3.78828406;stroke-miterlimit:4;stroke-opacity:1;stroke-dasharray:none"
       sodipodi:type="arc" />
    <path
       style="opacity:0.96137338999999999;fill:#999999;fill-opacity:1;fill-rule:nonzero;stroke:#000000;stroke-width:4.60641193000000015;stroke-miterlimit:4;stroke-opacity:1;stroke-dasharray:none"
       d="m 91.16619,807.8969 c -25.80083,-2.5617 -45.952158,-9.56766 -49.560228,-17.23045 -1.160431,-2.46452 -1.64022,-15.50267 -2.429651,-66.02524 -0.541024,-34.62486 -0.921403,-63.03581 -0.845286,-63.13543 0.07612,-0.0996 3.304385,1.35629 7.173929,3.23538 7.145385,3.46987 17.460446,6.39273 31.330176,8.87767 11.99709,2.14943 53.05032,1.80024 65.96732,-0.56111 11.83913,-2.1643 23.83568,-5.88514 29.95169,-9.2898 l 4.3026,-2.39516 0.55197,4.25166 c 0.30359,2.33842 0.67062,31.49322 0.81564,64.78844 0.25823,59.28802 0.22143,60.58367 -1.78363,62.81032 -5.40306,6.00015 -25.51526,12.3376 -45.40485,14.30728 -9.87898,0.97833 -31.88047,1.17953 -40.06968,0.36644 z"
       id="path9551"
       inkscape:connector-curvature="0" />
    <path
       style="opacity:0.24892704;fill:#4d4d4d;fill-opacity:1;fill-rule:nonzero;stroke:#000000;stroke-width:4.60641193000000015;stroke-miterlimit:4;stroke-opacity:1;stroke-dasharray:none"
       d="m 136.44277,1019.6463 c -10.37661,-3.7999 -15.05916,-8.786 -16.55737,-17.6308 -0.50685,-2.99227 -1.21742,-17.32642 -1.57903,-31.85369 l -0.65748,-26.41323 5.44021,3.56759 c 8.06931,5.2917 15.52964,7.08845 27.333,6.58286 8.0194,-0.3435 11.01411,-0.95412 16.18394,-3.29987 3.48901,-1.5831 7.13038,-3.74767 8.09191,-4.81016 3.91516,-4.3262 4.17698,-2.98545 4.7701,24.42712 0.31368,14.49741 0.41711,27.97116 0.22984,29.94168 -0.18727,1.9705 -0.37594,4.3992 -0.41927,5.397 -0.13315,3.0662 -8.01289,10.617 -13.6656,13.0953 -7.50191,3.2889 -21.59494,3.7702 -29.17025,0.9962 z"
       id="path9553"
       inkscape:connector-curvature="0" />
    <g
       transform="translate(62.442472,541.5093)"
       id="g4058">
      <g
         style="font-style:normal;font-variant:normal;font-weight:normal;font-stretch:normal;letter-spacing:normal;word-spacing:normal;text-anchor:start;fill:none;stroke:#000000;stroke-linecap:butt;stroke-linejoin:miter;stroke-miterlimit:10.43299961;stroke-opacity:1;stroke-dasharray:none;stroke-dashoffset:0"
         id="g4060"
         transform="matrix(1.0928571,0,0,-1.0928571,-191.25,742.5)"
         xml:space="preserve"
         stroke-miterlimit="10.433"
         font-style="normal"
         font-variant="normal"
         font-weight="normal"
         font-stretch="normal"
         font-size-adjust="none"
         letter-spacing="normal"
         word-spacing="normal"><path
           style="fill:#000000;stroke-width:0"
           inkscape:connector-curvature="0"
           d="m 500.8,435.34 0.09,0.26 0.09,0.25 0.11,0.23 0.11,0.22 0.11,0.21 0.12,0.19 0.13,0.19 0.13,0.17 0.14,0.16 0.14,0.16 0.14,0.14 0.16,0.13 0.15,0.12 0.16,0.11 0.16,0.1 0.17,0.1 0.16,0.08 0.18,0.08 0.17,0.07 0.18,0.07 0.17,0.05 0.18,0.05 0.18,0.04 0.19,0.04 0.18,0.03 0.18,0.03 0.19,0.02 0.18,0.02 0.37,0.02 0.37,0 v 1.55 c -1.49,-0.11 -3.04,-0.16 -4.54,-0.16 -1.43,0 -4.62,0.11 -5.92,0.16 v -1.55 c 3.33,-0.04 4.33,-1.68 4.33,-2.64 0,-0.29 -0.14,-0.7 -0.25,-1 l -7.47,-23.01 -7.97,24.4 c -0.06,0.21 -0.15,0.5 -0.15,0.75 0,1.5 2.89,1.5 4.18,1.5 v 1.55 c -1.79,-0.16 -5.18,-0.16 -7.07,-0.16 -1.89,0 -4.04,0.11 -6.08,0.16 v -1.55 c 2.84,0 3.89,0 4.48,-1.79 l 1.1,-3.49 -6.93,-21.37 -8.01,24.51 c -0.05,0.14 -0.11,0.5 -0.11,0.64 0,1.5 2.89,1.5 4.19,1.5 v 1.55 c -1.8,-0.16 -5.18,-0.16 -7.08,-0.16 -1.89,0 -4.03,0.11 -6.08,0.16 v -1.55 c 3.75,0 3.94,-0.25 4.55,-2.09 l 9.95,-30.55 c 0.16,-0.43 0.3,-0.93 0.95,-0.93 0.69,0 0.8,0.34 1,1 l 8.22,25.29 8.27,-25.36 c 0.15,-0.43 0.29,-0.93 0.95,-0.93 0.69,0 0.8,0.34 0.99,1 z"
           id="path4062" /><path
           style="fill:#000000;stroke-width:0"
           inkscape:connector-curvature="0"
           d="M 535.76,440.07 H 508.4 v -1.54 h 1.2 c 3.83,0 3.94,-0.55 3.94,-2.33 v -26.11 c 0,-1.8 -0.11,-2.34 -3.94,-2.34 h -1.2 v -1.55 c 1.75,0.16 5.64,0.16 7.58,0.16 2.04,0 6.57,0 8.37,-0.16 v 1.55 h -1.65 c -4.74,0 -4.74,0.64 -4.74,2.39 v 12.25 h 4.3 c 4.78,0 5.28,-1.6 5.28,-5.83 h 1.23 v 13.2 h -1.23 c 0,-4.19 -0.5,-5.83 -5.28,-5.83 h -4.3 v 12.61 c 0,1.64 0.11,1.99 2.45,1.99 h 5.97 c 7.49,0 8.72,-2.78 9.52,-9.66 h 1.25 z"
           id="path4064" /></g>    </g>
    <g
       id="g4324"
       transform="translate(311.74988,541.5093)">
      <g
         word-spacing="normal"
         letter-spacing="normal"
         font-size-adjust="none"
         font-stretch="normal"
         font-weight="normal"
         font-variant="normal"
         font-style="normal"
         stroke-miterlimit="10.433"
         xml:space="preserve"
         transform="matrix(1.0928571,0,0,-1.0928571,-191.25,742.5)"
         id="g4326"
         style="font-style:normal;font-variant:normal;font-weight:normal;font-stretch:normal;letter-spacing:normal;word-spacing:normal;text-anchor:start;fill:none;stroke:#000000;stroke-linecap:butt;stroke-linejoin:miter;stroke-miterlimit:10.43299961;stroke-opacity:1;stroke-dasharray:none;stroke-dashoffset:0"><path
           id="path4328"
           d="m 500.8,435.34 0.09,0.26 0.09,0.25 0.11,0.23 0.11,0.22 0.11,0.21 0.12,0.19 0.13,0.19 0.13,0.17 0.14,0.16 0.14,0.16 0.14,0.14 0.16,0.13 0.15,0.12 0.16,0.11 0.16,0.1 0.17,0.1 0.16,0.08 0.18,0.08 0.17,0.07 0.18,0.07 0.17,0.05 0.18,0.05 0.18,0.04 0.19,0.04 0.18,0.03 0.18,0.03 0.19,0.02 0.18,0.02 0.37,0.02 0.37,0 v 1.55 c -1.49,-0.11 -3.04,-0.16 -4.54,-0.16 -1.43,0 -4.62,0.11 -5.92,0.16 v -1.55 c 3.33,-0.04 4.33,-1.68 4.33,-2.64 0,-0.29 -0.14,-0.7 -0.25,-1 l -7.47,-23.01 -7.97,24.4 c -0.06,0.21 -0.15,0.5 -0.15,0.75 0,1.5 2.89,1.5 4.18,1.5 v 1.55 c -1.79,-0.16 -5.18,-0.16 -7.07,-0.16 -1.89,0 -4.04,0.11 -6.08,0.16 v -1.55 c 2.84,0 3.89,0 4.48,-1.79 l 1.1,-3.49 -6.93,-21.37 -8.01,24.51 c -0.05,0.14 -0.11,0.5 -0.11,0.64 0,1.5 2.89,1.5 4.19,1.5 v 1.55 c -1.8,-0.16 -5.18,-0.16 -7.08,-0.16 -1.89,0 -4.03,0.11 -6.08,0.16 v -1.55 c 3.75,0 3.94,-0.25 4.55,-2.09 l 9.95,-30.55 c 0.16,-0.43 0.3,-0.93 0.95,-0.93 0.69,0 0.8,0.34 1,1 l 8.22,25.29 8.27,-25.36 c 0.15,-0.43 0.29,-0.93 0.95,-0.93 0.69,0 0.8,0.34 0.99,1 z"
           inkscape:connector-curvature="0"
           style="fill:#000000;stroke-width:0" /><path
           id="path4330"
           d="m 524.15,425.53 -6.38,1.54 c -3.09,0.75 -5.03,3.44 -5.03,6.33 0,3.49 2.69,6.53 6.58,6.53 8.31,0 9.41,-8.17 9.7,-10.42 0.05,-0.3 0.05,-0.59 0.61,-0.59 0.64,0 0.64,0.25 0.64,1.2 v 10 c 0,0.86 0,1.2 -0.54,1.2 -0.35,0 -0.41,-0.04 -0.75,-0.65 l -1.74,-2.83 c -1.5,1.44 -3.54,3.48 -7.98,3.48 -5.53,0 -9.71,-4.39 -9.71,-9.67 0,-4.12 2.65,-7.76 6.52,-9.11 0.55,-0.2 3.09,-0.79 6.58,-1.64 1.34,-0.36 2.84,-0.7 4.23,-2.54 1.05,-1.3 1.55,-2.94 1.55,-4.58 0,-3.55 -2.48,-7.13 -6.67,-7.13 -1.46,0 -5.24,0.25 -7.88,2.69 -2.89,2.69 -3.04,5.87 -3.09,7.67 -0.05,0.5 -0.44,0.5 -0.59,0.5 -0.65,0 -0.65,-0.36 -0.65,-1.25 v -9.97 c 0,-0.84 0,-1.18 0.55,-1.18 0.35,0 0.39,0.09 0.74,0.64 0,0.04 0.15,0.2 1.79,2.84 1.55,-1.69 4.74,-3.48 9.17,-3.48 5.83,0 9.82,4.87 9.82,10.35 0,4.99 -3.28,9.07 -7.47,10.07 z"
           inkscape:connector-curvature="0"
           style="fill:#000000;stroke-width:0" /></g>    </g>
    <g
       id="g4464"
       transform="matrix(0,1.6306122,-2.8992915,0,1486.0661,30.38991)">
      <g
         word-spacing="normal"
         letter-spacing="normal"
         font-size-adjust="none"
         font-stretch="normal"
         font-weight="normal"
         font-variant="normal"
         font-style="normal"
         stroke-miterlimit="10.433"
         xml:space="preserve"
         transform="matrix(1.0928571,0,0,-1.0928571,-191.25,742.5)"
         id="g4466"
         style="font-style:normal;font-variant:normal;font-weight:normal;font-stretch:normal;letter-spacing:normal;word-spacing:normal;text-anchor:start;fill:none;stroke:#000000;stroke-linecap:butt;stroke-linejoin:miter;stroke-miterlimit:10.43299961;stroke-opacity:1;stroke-dasharray:none;stroke-dashoffset:0"><path
           id="path4468"
           d="m 466.29,400.37 -0.01,-0.19 -0.01,-0.2 -0.02,-0.2 -0.03,-0.21 -0.04,-0.21 -0.05,-0.21 -0.06,-0.22 -0.07,-0.22 -0.09,-0.22 -0.09,-0.22 -0.11,-0.22 -0.12,-0.22 -0.14,-0.21 -0.15,-0.22 -0.16,-0.21 -0.18,-0.21 -0.2,-0.2 -0.21,-0.19 -0.23,-0.19 -0.25,-0.19 -0.26,-0.17 -0.29,-0.17 -0.3,-0.15 -0.32,-0.15 -0.35,-0.14 -0.36,-0.12 -0.38,-0.12 -0.41,-0.1 -0.21,-0.04 -0.22,-0.04 -0.22,-0.04 -0.23,-0.03 -0.23,-0.03 -0.24,-0.03 -0.25,-0.02 -0.25,-0.02 c -0.25,-0.05 -0.44,-0.25 -0.44,-0.55 0,-0.54 0.55,-0.54 0.99,-0.54 4.84,0 9.47,2.43 9.51,6.21 v 11.36 c 0,1.96 0,3.55 2,5.19 1.75,1.45 3.64,1.55 4.74,1.6 0.25,0.04 0.45,0.25 0.45,0.54 0,0.5 -0.31,0.5 -0.8,0.55 -3.29,0.2 -5.68,2 -6.23,4.44 -0.16,0.54 -0.16,0.64 -0.16,2.43 v 9.88 c 0,2.08 0,3.69 -2.39,5.58 -1.98,1.54 -5.42,2.03 -7.12,2.03 -0.44,0 -0.99,0 -0.99,-0.55 0,-0.5 0.3,-0.5 0.8,-0.55 3.13,-0.18 5.58,-1.79 6.22,-4.32 0.16,-0.46 0.16,-0.55 0.16,-2.35 v -10.47 c 0,-2.28 0.39,-3.12 1.98,-4.73 1.05,-1.03 2.5,-1.53 3.89,-1.94 -4.08,-1.14 -5.87,-3.44 -5.87,-6.33 z"
           inkscape:connector-curvature="0"
           style="fill:#000000;stroke-width:0" /></g>    </g>
  </g>
</svg>
